<svg width="140" height="140" viewBox="0 0 140 140" fill="none" xmlns="http://www.w3.org/2000/svg">
<g filter="url(#filter0_d_1850_1201)">
<rect x="10" y="10" width="120" height="120" rx="16" fill="#FFAA00" shape-rendering="crispEdges"/>
<rect x="11" y="11" width="118" height="118" rx="15" stroke="white" stroke-width="2" shape-rendering="crispEdges"/>
<g clip-path="url(#clip0_1850_1201)">
<path d="M76.867 76.0581C77.0863 76.0581 77.567 76.2798 78.211 77.1361C79.9786 79.5912 81.6635 82.1048 83.2627 84.6728C79.4663 86.1801 74.8743 87.0294 70 87.0294C67.6947 87.0294 65.4547 86.8031 63.336 86.4228C66.6423 82.9064 70.1447 79.7588 74.3097 77.1361C75.6047 76.4874 76.2207 76.0581 76.867 76.0581ZM82.523 61.5868C89.1917 64.0485 93.695 68.3675 93.695 73.2488C93.695 76.5504 91.6393 79.6188 88.2397 82.0104C87.3413 76.7371 86.1443 71.5641 84.4037 66.5731C83.824 64.8937 83.1953 63.2317 82.5183 61.5891L82.523 61.5868ZM60.0367 60.8471C59.071 63.3653 58.2177 65.9251 57.4793 68.5191C56.157 73.4354 55.1231 78.4248 54.383 83.4618C49.4597 80.8951 46.305 77.1851 46.305 73.2301C46.3073 67.9241 51.9983 63.1105 60.0367 60.8471ZM71.0803 42.2015C70.8587 42.2015 70.8937 42.1851 70.6743 42.4021C67.2453 46.4943 64.3715 51.0211 62.1273 55.8655C50.4723 58.0775 42 65.0705 42 73.2325C42 79.2711 46.6457 84.6728 53.7787 87.9721C53.4123 91.0819 53.1422 94.2023 52.969 97.3288C52.969 97.5481 53.221 97.8001 53.4427 97.8001H53.6433C53.8627 97.8001 53.83 97.8164 54.047 97.5994C55.957 95.0582 57.9317 92.5662 59.969 90.1258C63.091 90.9098 66.4557 91.3391 70 91.3391C75.7283 91.3391 81.0553 90.2191 85.4817 88.3105C86.555 90.1118 87.6003 91.9388 88.7133 93.8988C88.7133 94.1181 89.166 94.0994 89.3853 94.0994C89.492 94.0982 89.594 94.0553 89.6694 93.9799C89.7449 93.9044 89.7878 93.8025 89.789 93.6958C89.5732 91.2883 89.3041 88.886 88.9817 86.4904C94.5093 83.1771 98 78.4405 98 73.2325C98 65.6445 90.636 59.0645 80.2317 56.4045C77.8174 51.442 74.8844 46.7492 71.4817 42.4045C71.4817 42.1851 71.2997 42.2015 71.0803 42.2015Z" fill="white"/>
</g>
</g>
<defs>
<filter id="filter0_d_1850_1201" x="0" y="0" width="140" height="140" filterUnits="userSpaceOnUse" color-interpolation-filters="sRGB">
<feFlood flood-opacity="0" result="BackgroundImageFix"/>
<feColorMatrix in="SourceAlpha" type="matrix" values="0 0 0 0 0 0 0 0 0 0 0 0 0 0 0 0 0 0 127 0" result="hardAlpha"/>
<feOffset/>
<feGaussianBlur stdDeviation="5"/>
<feComposite in2="hardAlpha" operator="out"/>
<feColorMatrix type="matrix" values="0 0 0 0 0 0 0 0 0 0 0 0 0 0 0 0 0 0 0.2 0"/>
<feBlend mode="normal" in2="BackgroundImageFix" result="effect1_dropShadow_1850_1201"/>
<feBlend mode="normal" in="SourceGraphic" in2="effect1_dropShadow_1850_1201" result="shape"/>
</filter>
<clipPath id="clip0_1850_1201">
<rect width="56" height="56" fill="white" transform="translate(42 42)"/>
</clipPath>
</defs>
</svg>
