<svg width="16" height="16" viewBox="0 0 16 16" fill="none" xmlns="http://www.w3.org/2000/svg">
<path d="M7.64948 9.64935L5.23281 7.23268C5.19948 7.19935 5.17459 7.16335 5.15815 7.12468C5.1417 7.08602 5.13326 7.04424 5.13281 6.99935C5.13281 6.91046 5.16348 6.83268 5.22481 6.76602C5.28615 6.69935 5.36659 6.66602 5.46615 6.66602H10.5328C10.6328 6.66602 10.7135 6.69935 10.7748 6.76602C10.8361 6.83268 10.8666 6.91046 10.8661 6.99935C10.8661 7.02157 10.8328 7.09935 10.7661 7.23268L8.34948 9.64935C8.29392 9.7049 8.23837 9.74379 8.18281 9.76602C8.12726 9.78824 8.06615 9.79935 7.99948 9.79935C7.93281 9.79935 7.8717 9.78824 7.81615 9.76602C7.76059 9.74379 7.70504 9.7049 7.64948 9.64935Z" fill="white"/>
</svg>
