<svg width="40" height="41" viewBox="0 0 40 41" fill="none" xmlns="http://www.w3.org/2000/svg">
<g clipPath="url(#clip0_4179_7575)">
<path d="M26.9383 18.8666C26.6912 18.6162 26.3547 18.4742 26.0027 18.4717C25.6508 18.4692 25.3123 18.6065 25.0617 18.8534C24.8111 19.1003 24.6689 19.4366 24.6664 19.7882C24.6639 20.1398 24.8014 20.478 25.0485 20.7284L29.9648 25.6932H6.32159C5.97108 25.6932 5.63493 25.8323 5.38708 26.08C5.13924 26.3276 5 26.6634 5 27.0136C5 27.3638 5.13924 27.6997 5.38708 27.9473C5.63493 28.1949 5.97108 28.3341 6.32159 28.3341H29.9648L25.0485 33.2196C24.9261 33.3427 24.8292 33.4887 24.7633 33.6492C24.6974 33.8098 24.6639 33.9817 24.6645 34.1552C24.6651 34.3287 24.6999 34.5004 24.7669 34.6604C24.8339 34.8205 24.9318 34.9658 25.0551 35.088C25.1783 35.2103 25.3244 35.3071 25.4851 35.3729C25.6457 35.4387 25.8178 35.4723 25.9915 35.4717C26.1651 35.4711 26.3369 35.4363 26.4971 35.3693C26.6573 35.3024 26.8028 35.2045 26.9251 35.0814L35 27.0136L26.9383 18.8666Z" fill="#C82332"/>
<path d="M14.0132 21.4717C14.2757 21.4732 14.5327 21.3966 14.7515 21.2518C14.9702 21.1069 15.1408 20.9003 15.2415 20.6583C15.3421 20.4163 15.3683 20.1498 15.3167 19.8929C15.265 19.6359 15.1379 19.4002 14.9515 19.2156L10.0485 14.2814H33.6784C34.0289 14.2814 34.3651 14.1425 34.6129 13.895C34.8608 13.6476 35 13.312 35 12.9621C35 12.6122 34.8608 12.2767 34.6129 12.0293C34.3651 11.7818 34.0289 11.6428 33.6784 11.6428H10.0485L14.9515 6.72183C15.0739 6.59882 15.1708 6.45296 15.2367 6.29257C15.3026 6.13218 15.3361 5.96041 15.3355 5.78706C15.3349 5.61371 15.3001 5.44218 15.2331 5.28226C15.1661 5.12234 15.0682 4.97716 14.9449 4.85502C14.8217 4.73288 14.6756 4.63616 14.5149 4.57038C14.3543 4.50461 14.1822 4.47108 14.0085 4.47169C13.6578 4.47293 13.322 4.61319 13.0749 4.86162L5 12.9621L13.0749 21.0627C13.1962 21.1897 13.3416 21.2913 13.5028 21.3616C13.6639 21.4318 13.8374 21.4692 14.0132 21.4717Z" fill="#C82332"/>
</g>
<defs>
<clipPath id="clip0_4179_7575">
<rect width="40" height="40" fill="white" transform="translate(0 0.47168)"/>
</clipPath>
</defs>
</svg>
