<svg width="24" height="24" viewBox="0 0 24 24" fill="none" xmlns="http://www.w3.org/2000/svg">
<g id="bi:qr-code-scan" clipPath="url(#clip0_5977_386)">
<g id="Group">
<path id="Vector" d="M0 0.749756C0 0.550843 0.0790176 0.360078 0.21967 0.219426C0.360322 0.0787735 0.551088 -0.000244141 0.75 -0.000244141L5.25 -0.000244141C5.44891 -0.000244141 5.63968 0.0787735 5.78033 0.219426C5.92098 0.360078 6 0.550843 6 0.749756C6 0.948668 5.92098 1.13943 5.78033 1.28009C5.63968 1.42074 5.44891 1.49976 5.25 1.49976H1.5V5.24976C1.5 5.44867 1.42098 5.63943 1.28033 5.78009C1.13968 5.92074 0.948912 5.99976 0.75 5.99976C0.551088 5.99976 0.360322 5.92074 0.21967 5.78009C0.0790176 5.63943 0 5.44867 0 5.24976V0.749756ZM18 0.749756C18 0.550843 18.079 0.360078 18.2197 0.219426C18.3603 0.0787735 18.5511 -0.000244141 18.75 -0.000244141L23.25 -0.000244141C23.4489 -0.000244141 23.6397 0.0787735 23.7803 0.219426C23.921 0.360078 24 0.550843 24 0.749756V5.24976C24 5.44867 23.921 5.63943 23.7803 5.78009C23.6397 5.92074 23.4489 5.99976 23.25 5.99976C23.0511 5.99976 22.8603 5.92074 22.7197 5.78009C22.579 5.63943 22.5 5.44867 22.5 5.24976V1.49976H18.75C18.5511 1.49976 18.3603 1.42074 18.2197 1.28009C18.079 1.13943 18 0.948668 18 0.749756ZM0.75 17.9998C0.948912 17.9998 1.13968 18.0788 1.28033 18.2194C1.42098 18.3601 1.5 18.5508 1.5 18.7498V22.4998H5.25C5.44891 22.4998 5.63968 22.5788 5.78033 22.7194C5.92098 22.8601 6 23.0508 6 23.2498C6 23.4487 5.92098 23.6394 5.78033 23.7801C5.63968 23.9207 5.44891 23.9998 5.25 23.9998H0.75C0.551088 23.9998 0.360322 23.9207 0.21967 23.7801C0.0790176 23.6394 0 23.4487 0 23.2498V18.7498C0 18.5508 0.0790176 18.3601 0.21967 18.2194C0.360322 18.0788 0.551088 17.9998 0.75 17.9998ZM23.25 17.9998C23.4489 17.9998 23.6397 18.0788 23.7803 18.2194C23.921 18.3601 24 18.5508 24 18.7498V23.2498C24 23.4487 23.921 23.6394 23.7803 23.7801C23.6397 23.9207 23.4489 23.9998 23.25 23.9998H18.75C18.5511 23.9998 18.3603 23.9207 18.2197 23.7801C18.079 23.6394 18 23.4487 18 23.2498C18 23.0508 18.079 22.8601 18.2197 22.7194C18.3603 22.5788 18.5511 22.4998 18.75 22.4998H22.5V18.7498C22.5 18.5508 22.579 18.3601 22.7197 18.2194C22.8603 18.0788 23.0511 17.9998 23.25 17.9998ZM6 5.99976H7.5V7.49976H6V5.99976Z" fill="#011E3E"/>
<path id="Vector_2" d="M10.5 2.99976H3V10.4998H10.5V2.99976ZM4.5 4.49976H9V8.99976H4.5V4.49976ZM7.5 16.4998H6V17.9998H7.5V16.4998Z" fill="#011E3E"/>
<path id="Vector_3" d="M10.5 13.4998H3V20.9998H10.5V13.4998ZM4.5 14.9998H9V19.4998H4.5V14.9998ZM16.5 5.99976H18V7.49976H16.5V5.99976Z" fill="#011E3E"/>
<path id="Vector_4" d="M13.5 2.99976H21V10.4998H13.5V2.99976ZM15 4.49976V8.99976H19.5V4.49976H15ZM12 11.9998V14.9998H13.5V16.4998H12V17.9998H15V14.9998H16.5V17.9998H18V16.4998H21V14.9998H16.5V11.9998H12ZM15 14.9998H13.5V13.4998H15V14.9998ZM21 17.9998H19.5V19.4998H16.5V20.9998H21V17.9998ZM15 20.9998V19.4998H12V20.9998H15Z" fill="#011E3E"/>
<path id="Vector_5" d="M18 13.4998H21V11.9998H18V13.4998Z" fill="#011E3E"/>
</g>
</g>
<defs>
<clipPath id="clip0_5977_386">
<rect width="24" height="24" fill="white" transform="translate(0 -0.000244141)"/>
</clipPath>
</defs>
</svg>
