<svg width="12" height="13" viewBox="0 0 12 13" fill="none" xmlns="http://www.w3.org/2000/svg">
<path fill-rule="evenodd" clip-rule="evenodd" d="M5.99943 0C6.26463 5.66374e-05 6.51894 0.105451 6.70643 0.293L11.7064 5.293C11.8886 5.4816 11.9894 5.7342 11.9871 5.9964C11.9848 6.2586 11.8797 6.50941 11.6942 6.69482C11.5088 6.88023 11.258 6.9854 10.9958 6.98767C10.7336 6.98995 10.481 6.88916 10.2924 6.707L5.99943 2.414L1.70643 6.707C1.51783 6.88916 1.26523 6.98995 1.00303 6.98767C0.740833 6.9854 0.49002 6.88023 0.304612 6.69482C0.119204 6.50941 0.014035 6.2586 0.0117566 5.9964C0.00947813 5.7342 0.110273 5.4816 0.292431 5.293L5.29243 0.293C5.47992 0.105451 5.73424 5.66374e-05 5.99943 0ZM5.99943 6C6.26463 6.00006 6.51894 6.10545 6.70643 6.293L11.7064 11.293C11.8886 11.4816 11.9894 11.7342 11.9871 11.9964C11.9848 12.2586 11.8797 12.5094 11.6942 12.6948C11.5088 12.8802 11.258 12.9854 10.9958 12.9877C10.7336 12.99 10.481 12.8892 10.2924 12.707L5.99943 8.414L1.70643 12.707C1.51783 12.8892 1.26523 12.99 1.00303 12.9877C0.740833 12.9854 0.49002 12.8802 0.304612 12.6948C0.119204 12.5094 0.014035 12.2586 0.0117566 11.9964C0.00947813 11.7342 0.110273 11.4816 0.292431 11.293L5.29243 6.293C5.47992 6.10545 5.73424 6.00006 5.99943 6Z" fill="#FFAA00"/>
</svg>
