<svg width="20" height="20" viewBox="0 0 20 20" fill="none" xmlns="http://www.w3.org/2000/svg">
<path d="M1.59844 10.0004C1.59844 8.89729 1.81571 7.80498 2.23785 6.78585C2.65999 5.76671 3.27873 4.84071 4.05874 4.06069C4.83875 3.28068 5.76476 2.66194 6.7839 2.2398C7.80303 1.81766 8.89533 1.60039 9.99844 1.60039C11.1015 1.60039 12.1938 1.81766 13.213 2.2398C14.2321 2.66194 15.1581 3.28068 15.9381 4.06069C16.7181 4.84071 17.3369 5.76671 17.759 6.78585C18.1812 7.80498 18.3984 8.89729 18.3984 10.0004C18.3984 12.2282 17.5134 14.3648 15.9381 15.9401C14.3628 17.5154 12.2263 18.4004 9.99844 18.4004C7.77062 18.4004 5.63405 17.5154 4.05874 15.9401C2.48343 14.3648 1.59844 12.2282 1.59844 10.0004ZM9.99844 0.400391C7.45236 0.400391 5.01056 1.41182 3.21021 3.21217C1.40986 5.01251 0.398438 7.45431 0.398438 10.0004C0.398438 12.5465 1.40986 14.9883 3.21021 16.7886C5.01056 18.589 7.45236 19.6004 9.99844 19.6004C12.5445 19.6004 14.9863 18.589 16.7867 16.7886C18.587 14.9883 19.5984 12.5465 19.5984 10.0004C19.5984 7.45431 18.587 5.01251 16.7867 3.21217C14.9863 1.41182 12.5445 0.400391 9.99844 0.400391ZM6.22324 7.77559C6.16745 7.7198 6.10122 7.67555 6.02834 7.64536C5.95545 7.61517 5.87733 7.59963 5.79844 7.59963C5.71954 7.59963 5.64142 7.61517 5.56854 7.64536C5.49565 7.67555 5.42942 7.7198 5.37364 7.77559C5.31785 7.83138 5.2736 7.8976 5.24341 7.97049C5.21322 8.04338 5.19768 8.1215 5.19768 8.20039C5.19768 8.27928 5.21322 8.3574 5.24341 8.43029C5.2736 8.50318 5.31785 8.5694 5.37364 8.62519L9.57364 12.8252C9.62937 12.8811 9.69558 12.9254 9.76848 12.9556C9.84137 12.9859 9.91952 13.0015 9.99844 13.0015C10.0774 13.0015 10.1555 12.9859 10.2284 12.9556C10.3013 12.9254 10.3675 12.8811 10.4232 12.8252L14.6232 8.62519C14.7359 8.51253 14.7992 8.35972 14.7992 8.20039C14.7992 8.04106 14.7359 7.88825 14.6232 7.77559C14.5106 7.66293 14.3578 7.59963 14.1984 7.59963C14.0391 7.59963 13.8863 7.66293 13.7736 7.77559L9.99844 11.552L6.22324 7.77559Z" fill="#001D3D"/>
</svg>
