<svg width="16" height="16" viewBox="0 0 16 16" fill="none" xmlns="http://www.w3.org/2000/svg">
<g clip-path="url(#clip0_1817_9245)">
<path d="M7.86602 0.666016C5.95646 0.666016 4.12511 1.42458 2.77485 2.77485C1.42458 4.12511 0.666016 5.95646 0.666016 7.86602C0.666016 9.77557 1.42458 11.6069 2.77485 12.9572C4.12511 14.3074 5.95646 15.066 7.86602 15.066C9.77557 15.066 11.6069 14.3074 12.9572 12.9572C14.3074 11.6069 15.066 9.77557 15.066 7.86602C15.066 5.95646 14.3074 4.12511 12.9572 2.77485C11.6069 1.42458 9.77557 0.666016 7.86602 0.666016V0.666016ZM1.55402 8.41002H3.56202C3.59402 9.13802 3.69562 9.86122 3.86602 10.57H2.13802C1.81578 9.89072 1.61798 9.15914 1.55402 8.41002ZM8.41002 4.09002V1.61802C9.18096 1.911 9.81446 2.48171 10.186 3.21802C10.35 3.49562 10.4948 3.78442 10.618 4.08202L8.41002 4.09002ZM10.986 5.17002C11.1716 5.87642 11.282 6.60042 11.314 7.33002H8.41002V5.17002H10.986ZM7.32201 1.61802V4.09002H5.11402C5.23742 3.79217 5.38179 3.50345 5.54602 3.22602C5.91599 2.4867 6.54969 1.91294 7.32201 1.61802ZM7.32201 5.17002V7.33002H4.42602C4.45802 6.60042 4.56842 5.87642 4.75402 5.17002H7.32201ZM3.56202 7.32201H1.55402C1.61798 6.57289 1.81578 5.84131 2.13802 5.16202H3.86602C3.69529 5.87053 3.59348 6.5939 3.56202 7.32201ZM4.42602 8.41002H7.32201V10.57H4.75402C4.56844 9.86367 4.45849 9.1396 4.42602 8.41002ZM7.33002 11.61V14.082C6.55907 13.789 5.92557 13.2183 5.55402 12.482C5.38979 12.2046 5.24542 11.9159 5.12202 11.618L7.33002 11.61ZM8.41002 14.082V11.65H10.618C10.4946 11.9479 10.3502 12.2366 10.186 12.514C9.81446 13.2503 9.18096 13.821 8.41002 14.114V14.082ZM8.41002 10.53V8.37002H11.306C11.2735 9.0996 11.1636 9.82367 10.978 10.53H8.41002ZM12.178 8.37002H14.186C14.122 9.11914 13.9243 9.85072 13.602 10.53H11.866C12.034 9.83401 12.1356 9.12442 12.17 8.41002L12.178 8.37002ZM12.178 7.29002C12.1414 6.57506 12.0369 5.86521 11.866 5.17002H13.594C13.9164 5.85002 14.114 6.58122 14.178 7.33002L12.178 7.29002ZM12.978 4.09002H11.546C11.2869 3.36226 10.9114 2.6814 10.434 2.07402C11.4295 2.52088 12.2942 3.21486 12.946 4.09002H12.978ZM5.29802 2.07402C4.82067 2.6814 4.44512 3.36226 4.18602 4.09002H2.78602C3.43779 3.21486 4.30251 2.52088 5.29802 2.07402ZM2.77802 11.674H4.18602C4.44512 12.4018 4.82067 13.0826 5.29802 13.69C4.29976 13.2364 3.43477 12.534 2.78602 11.65L2.77802 11.674ZM10.426 13.69C10.9034 13.0826 11.2789 12.4018 11.538 11.674H12.946C12.2903 12.5375 11.4259 13.2201 10.434 13.658L10.426 13.69Z" fill="white"/>
</g>
<defs>
<clipPath id="clip0_1817_9245">
<rect width="16" height="16" fill="white"/>
</clipPath>
</defs>
</svg>
