<svg width="41" height="36" viewBox="0 0 41 36" fill="none" xmlns="http://www.w3.org/2000/svg">
<path d="M19.38 0.211093C19.0368 0.211753 18.6936 0.219612 18.3508 0.234665C17.614 0.365649 17.2738 0.688219 17.0891 1.05743C16.8855 1.46451 16.8935 2.01227 17.1204 2.49934C17.3475 2.98667 17.7641 3.38505 18.3456 3.53384C18.9272 3.68263 19.7278 3.60573 20.7801 2.93309L21.6213 4.24962C20.2991 5.0947 19.0196 5.31763 17.959 5.04622C16.8984 4.77481 16.1114 4.03287 15.7048 3.1602C15.3216 2.33802 15.2512 1.3734 15.6187 0.516778C12.0313 1.09689 8.783 2.4726 6.28795 4.40885C5.46794 5.30225 5.3877 6.3406 5.74713 7.04977C6.15086 7.84604 7.10211 8.42731 9.00459 7.82547L9.47737 9.31444C7.0884 10.0701 5.11929 9.26529 4.35504 7.7576C4.16863 7.39006 4.05479 6.99226 4.01007 6.58208C3.60767 7.05955 3.24439 7.55657 2.92341 8.07365L2.93394 8.07866C2.2139 9.71835 2.19752 10.8541 2.48457 11.5921C2.77178 12.3302 3.37353 12.7991 4.30012 13.0576C6.15312 13.5741 9.15372 12.9508 11.2667 11.3727C12.1711 10.6973 13.0285 9.05925 13.1031 7.78886C13.1403 7.15358 13.0058 6.65172 12.7399 6.33123C12.4741 6.01075 12.0485 5.77094 11.1674 5.78005L11.1517 4.2181C12.3627 4.20556 13.346 4.61548 13.9415 5.33351C14.537 6.05154 14.7156 6.97621 14.6625 7.88031C14.5563 9.68859 13.6097 11.5726 12.2018 12.624C9.70448 14.4892 6.40606 15.2659 3.88217 14.5623C2.71293 14.2363 1.67793 13.5269 1.14463 12.4282C0.346692 16.227 1.50599 19.7556 3.71232 22.1976C4.0007 22.5169 4.30764 22.8187 4.62929 23.0987C4.39909 22.4394 4.2936 21.7529 4.31834 21.0848C4.36264 19.8874 4.82673 18.7154 5.75774 17.9059C6.52125 17.2417 7.57597 16.8585 8.83742 16.861C8.92151 16.861 9.00744 16.8625 9.09337 16.866C9.2898 16.8744 9.4915 16.8915 9.69688 16.9184L9.49292 18.4674C8.18994 18.2963 7.34426 18.5947 6.78163 19.0839C6.21907 19.5732 5.90871 20.3055 5.87778 21.1423C5.81592 22.8161 6.8867 24.7706 9.19543 25.3375L9.19275 25.3532C11.4657 25.787 14.0021 25.3843 16.5486 23.8302C16.5501 23.8292 16.5522 23.8288 16.5538 23.8277C17.0837 23.4557 17.3692 23.0914 17.5099 22.7776C17.6758 22.4071 17.6723 22.0844 17.5542 21.7379C17.3181 21.0449 16.4725 20.3326 15.697 20.134C14.443 19.8131 13.6464 20.2541 13.2729 20.7794C12.8994 21.3043 12.8767 21.82 13.4531 22.2681L12.4944 23.501C11.3085 22.5788 11.2328 20.9526 12.0008 19.8728C12.5769 19.063 13.5877 18.5082 14.8063 18.4727C14.8577 18.4709 14.9091 18.47 14.9605 18.4702C15.3204 18.4727 15.6952 18.5222 16.0837 18.6215C17.3797 18.9534 18.578 19.8985 19.0327 21.2337C19.154 21.5916 19.2072 21.9691 19.1895 22.3466C20.5863 21.6329 22.0593 20.9991 23.5597 20.5232C26.0804 19.3713 27.1733 17.352 27.1306 15.6516C27.0876 13.9386 26.0283 12.4969 23.5885 12.2557L23.7426 10.7014C26.8075 11.0045 28.6294 13.1964 28.6901 15.6123C28.7253 17.0199 28.2091 18.4847 27.1697 19.7316C28.5132 19.5811 29.8483 19.6066 31.1427 19.8676C30.8793 19.3266 30.7515 18.741 30.7693 18.1592C30.8259 16.3172 32.3926 14.5989 34.8548 14.5727C35.023 14.5711 35.1911 14.5772 35.3588 14.5909L35.2334 16.1478C33.1498 15.9808 32.3663 17.0744 32.3314 18.2087C32.2969 19.3305 33.0456 20.5862 35.1918 20.7529C37.5574 20.7738 39.2532 19.4908 40.0843 17.5843C41.1968 15.0319 40.6691 11.2051 37.1717 7.70511C37.1055 7.63882 37.0398 7.57195 36.9732 7.50658C36.9365 7.8183 36.8565 8.12337 36.7356 8.41302C36.1296 9.86663 34.71 10.8478 33.2353 11.1219C31.2012 11.4999 29.5331 10.6749 28.7633 9.41617C27.9934 8.15757 28.1955 6.37771 29.5808 5.44068L30.456 6.73631C29.7109 7.24018 29.6803 7.92244 30.0954 8.60118C30.5106 9.28009 31.4471 9.86806 32.9505 9.5887C33.8956 9.413 34.948 8.64164 35.2935 7.81243C35.4665 7.39783 35.5 6.98808 35.3276 6.51931C35.1876 6.13856 34.894 5.70315 34.348 5.24458L34.3323 5.23162C32.049 3.51077 29.6231 2.27315 27.1646 1.45699C27.1661 1.45966 27.1683 1.462 27.1698 1.46476C27.7285 2.48622 27.77 3.64493 27.4259 4.6699C26.7377 6.71992 24.578 8.33512 21.9063 8.24584C21.3255 8.22662 20.7728 8.50664 20.3026 9.05306C19.8322 9.59948 19.4888 10.3999 19.4092 11.2525C19.2499 12.9578 19.9879 14.8373 22.8651 15.7664L22.3839 17.2527C18.9499 16.144 17.6336 13.4456 17.8517 11.1089C17.961 9.94078 18.4123 8.85521 19.1187 8.03453C19.8252 7.21385 20.8302 6.6467 21.9582 6.68406C23.9677 6.7511 25.496 5.50679 25.9443 4.17113C26.1685 3.50342 26.1395 2.83897 25.798 2.21472C25.4664 1.60853 24.8092 1.00912 23.6326 0.571696C22.2283 0.327799 20.8053 0.207138 19.38 0.211093ZM27.8406 21.2704C24.337 21.5554 20.5378 23.2263 17.3686 25.1624C12.6893 28.021 7.76505 27.397 4.2712 24.8047C5.64574 29.7234 10.5163 30.7218 15.5975 29.4777C16.106 29.2867 16.6056 28.9312 17.0316 28.4721C17.6215 27.8363 18.0489 27.0118 18.1835 26.3302L19.7169 26.6332C19.5125 27.6683 18.958 28.695 18.1783 29.5354C17.4302 30.3416 16.4556 30.9857 15.3284 31.1549C14.7629 32.4145 14.2975 33.6358 14.1085 34.4906C13.8118 35.833 15.296 36.3483 15.9605 34.9946C17.5506 31.7561 19.7948 28.8734 22.598 26.3877C24.7767 24.9539 26.6442 23.186 27.8407 21.2704H27.8406Z" fill="#FEB700"/>
</svg>
