<svg width="38" height="39" viewBox="0 0 38 39" fill="none" xmlns="http://www.w3.org/2000/svg">
<path d="M19 0.47168C8.5234 0.47168 0 8.99508 0 19.4717V27.3434C0 29.289 1.7043 30.8717 3.8 30.8717H5.7C6.20391 30.8717 6.68718 30.6715 7.0435 30.3152C7.39982 29.9589 7.6 29.4756 7.6 28.9717V19.2C7.6 18.6961 7.39982 18.2128 7.0435 17.8565C6.68718 17.5002 6.20391 17.3 5.7 17.3H3.9748C5.0312 9.94698 11.3582 4.27168 19 4.27168C26.6418 4.27168 32.9688 9.94698 34.0252 17.3H32.3C31.7961 17.3 31.3128 17.5002 30.9565 17.8565C30.6002 18.2128 30.4 18.6961 30.4 19.2V30.8717C30.4 32.9674 28.6957 34.6717 26.6 34.6717H22.8V32.7717H15.2V38.4717H26.6C30.7914 38.4717 34.2 35.0631 34.2 30.8717C36.2957 30.8717 38 29.289 38 27.3434V19.4717C38 8.99508 29.4766 0.47168 19 0.47168Z" fill="#4D4D4D"/>
</svg>
