<svg width="128" height="128" viewBox="0 0 128 128" fill="none" xmlns="http://www.w3.org/2000/svg">
<rect width="128" height="128" rx="64" fill="#011E3E"/>
<path d="M32 64C32.0169 72.4817 35.3938 80.6112 41.3913 86.6087C47.3888 92.6062 55.5183 95.9831 64 96H90.976C92.3084 96 93.5863 95.4707 94.5285 94.5285C95.4707 93.5863 96 92.3084 96 90.976V64C96 55.5131 92.6286 47.3737 86.6274 41.3726C80.6263 35.3714 72.4869 32 64 32C55.5131 32 47.3737 35.3714 41.3726 41.3726C35.3714 47.3737 32 55.5131 32 64Z" fill="white"/>
<mask id="path-3-inside-1_173_492" fill="white">
<path d="M41.5638 63.0125C40.8279 62.9049 40.1398 63.4143 40.0775 64.1553C39.8401 66.9758 40.149 69.82 40.9917 72.5309C41.9679 75.671 43.6356 78.5525 45.8722 80.9631C48.1088 83.3738 50.8574 85.2524 53.9158 86.4608C56.556 87.504 59.3691 88.0248 62.1994 87.9991C62.9431 87.9924 63.5024 87.3443 63.4502 86.6024C63.398 85.8605 62.7539 85.3064 62.0102 85.3068C59.582 85.3081 57.1712 84.8512 54.9054 83.956C52.2215 82.8956 49.8094 81.2469 47.8466 79.1314C45.8838 77.0158 44.4202 74.4871 43.5635 71.7314C42.8403 69.405 42.5651 66.9667 42.7481 64.5455C42.8041 63.8039 42.2997 63.1201 41.5638 63.0125Z"/>
</mask>
<path d="M41.5638 63.0125C40.8279 62.9049 40.1398 63.4143 40.0775 64.1553C39.8401 66.9758 40.149 69.82 40.9917 72.5309C41.9679 75.671 43.6356 78.5525 45.8722 80.9631C48.1088 83.3738 50.8574 85.2524 53.9158 86.4608C56.556 87.504 59.3691 88.0248 62.1994 87.9991C62.9431 87.9924 63.5024 87.3443 63.4502 86.6024C63.398 85.8605 62.7539 85.3064 62.0102 85.3068C59.582 85.3081 57.1712 84.8512 54.9054 83.956C52.2215 82.8956 49.8094 81.2469 47.8466 79.1314C45.8838 77.0158 44.4202 74.4871 43.5635 71.7314C42.8403 69.405 42.5651 66.9667 42.7481 64.5455C42.8041 63.8039 42.2997 63.1201 41.5638 63.0125Z" stroke="#011E3E" strokeWidth="4" mask="url(#path-3-inside-1_173_492)"/>
<mask id="path-4-inside-2_173_492" fill="white">
<path d="M44.932 54.3704C44.3174 53.9517 43.4758 54.1085 43.0954 54.7476C42.2374 56.189 41.5471 57.724 41.0379 59.3223C40.8122 60.031 41.2533 60.7646 41.9744 60.9466C42.6955 61.1286 43.423 60.6896 43.6548 59.9829C44.0792 58.6889 44.6394 57.4433 45.326 56.2671C45.7009 55.6248 45.5466 54.7892 44.932 54.3704Z"/>
</mask>
<path d="M44.932 54.3704C44.3174 53.9517 43.4758 54.1085 43.0954 54.7476C42.2374 56.189 41.5471 57.724 41.0379 59.3223C40.8122 60.031 41.2533 60.7646 41.9744 60.9466C42.6955 61.1286 43.423 60.6896 43.6548 59.9829C44.0792 58.6889 44.6394 57.4433 45.326 56.2671C45.7009 55.6248 45.5466 54.7892 44.932 54.3704Z" stroke="#011E3E" strokeWidth="4" mask="url(#path-4-inside-2_173_492)"/>
</svg>
