<svg width="24" height="24" viewBox="0 0 24 24" fill="none" xmlns="http://www.w3.org/2000/svg">
<path d="M12.0006 1.71484C17.6808 1.71484 22.2863 6.32027 22.2863 12.0006C22.2863 17.6808 17.6808 22.2863 12.0006 22.2863C6.32027 22.2863 1.71484 17.6808 1.71484 12.0006C1.71484 6.32027 6.32027 1.71484 12.0006 1.71484ZM14.3834 7.74056C14.497 7.61869 14.5588 7.45751 14.5559 7.29097C14.5529 7.12442 14.4854 6.96552 14.3677 6.84774C14.2499 6.72996 14.091 6.66249 13.9244 6.65955C13.7579 6.65661 13.5967 6.71843 13.4748 6.83199L8.76056 11.5463C8.64017 11.6668 8.57255 11.8302 8.57255 12.0006C8.57255 12.1709 8.64017 12.3343 8.76056 12.4548L13.4748 17.1691C13.5337 17.2323 13.6047 17.283 13.6835 17.3181C13.7624 17.3532 13.8475 17.3721 13.9338 17.3736C14.0201 17.3752 14.1059 17.3593 14.1859 17.327C14.266 17.2946 14.3387 17.2465 14.3997 17.1854C14.4608 17.1244 14.5089 17.0517 14.5412 16.9716C14.5736 16.8916 14.5894 16.8059 14.5879 16.7195C14.5864 16.6332 14.5675 16.5481 14.5324 16.4692C14.4972 16.3904 14.4466 16.3194 14.3834 16.2606L10.1234 12.0006L14.3834 7.74056Z" fill="#3B3B3B"/>
</svg>
