<svg width="104" height="104" viewBox="0 0 104 104" fill="none" xmlns="http://www.w3.org/2000/svg">
<circle cx="52" cy="52" r="52" fill="url(#paint0_radial_3808_7274)"/>
<g clipPath="url(#clip0_3808_7274)">
<path d="M52.0014 36.375C47.758 36.375 47.2253 36.3936 45.5588 36.4694C43.8953 36.5456 42.7598 36.8089 41.7664 37.1953C40.7386 37.5944 39.8669 38.1283 38.9984 38.997C38.1292 39.8656 37.5953 40.7373 37.195 41.7647C36.8075 42.7584 36.5439 43.8944 36.4691 45.557C36.3945 47.2237 36.375 47.7566 36.375 52.0002C36.375 56.2438 36.3938 56.7747 36.4694 58.4412C36.5459 60.1047 36.8092 61.2402 37.1953 62.2336C37.5947 63.2614 38.1286 64.1331 38.9973 65.0016C39.8656 65.8708 40.7373 66.4059 41.7644 66.805C42.7586 67.1914 43.8942 67.4547 45.5573 67.5309C47.2241 67.6067 47.7563 67.6253 51.9995 67.6253C56.2434 67.6253 56.7744 67.6067 58.4409 67.5309C60.1044 67.4547 61.2411 67.1914 62.2353 66.805C63.2627 66.4059 64.1331 65.8708 65.0012 65.0016C65.8705 64.1331 66.4042 63.2614 66.8047 62.2341C67.1887 61.2402 67.4525 60.1044 67.5306 58.4416C67.6055 56.775 67.625 56.2438 67.625 52.0002C67.625 47.7566 67.6055 47.2241 67.5306 45.5573C67.4525 43.8939 67.1887 42.7586 66.8047 41.7652C66.4042 40.7373 65.8705 39.8656 65.0012 38.997C64.1322 38.128 63.263 37.5941 62.2344 37.1955C61.2383 36.8089 60.1022 36.5455 58.4387 36.4694C56.772 36.3936 56.2414 36.375 51.9966 36.375H52.0014ZM50.5997 39.1908C51.0158 39.1902 51.48 39.1908 52.0014 39.1908C56.1734 39.1908 56.6678 39.2058 58.3153 39.2806C59.8387 39.3503 60.6656 39.6048 61.2164 39.8188C61.9456 40.1019 62.4655 40.4405 63.012 40.9875C63.5589 41.5344 63.8973 42.0552 64.1813 42.7844C64.3952 43.3344 64.65 44.1613 64.7194 45.6847C64.7942 47.3319 64.8105 47.8266 64.8105 51.9966C64.8105 56.1666 64.7942 56.6614 64.7194 58.3084C64.6497 59.8319 64.3952 60.6587 64.1813 61.2089C63.8981 61.9381 63.5589 62.4573 63.012 63.0039C62.4652 63.5508 61.9459 63.8892 61.2164 64.1725C60.6663 64.3873 59.8387 64.6413 58.3153 64.7109C56.6681 64.7858 56.1734 64.802 52.0014 64.802C47.8292 64.802 47.3347 64.7858 45.6877 64.7109C44.1642 64.6406 43.3373 64.3861 42.7861 64.1722C42.057 63.8889 41.5361 63.5505 40.9892 63.0036C40.4423 62.4567 40.1039 61.9372 39.82 61.2077C39.6061 60.6575 39.3513 59.8306 39.2819 58.3072C39.207 56.66 39.192 56.1653 39.192 51.9927C39.192 47.8202 39.207 47.328 39.2819 45.6808C39.3516 44.1573 39.6061 43.3305 39.82 42.7797C40.1033 42.0505 40.4423 41.5297 40.9894 40.9828C41.5363 40.4359 42.057 40.0973 42.7862 39.8136C43.337 39.5987 44.1642 39.3448 45.6877 39.2748C47.1291 39.2097 47.6877 39.1902 50.5997 39.1869V39.1908ZM60.342 41.7852C59.3069 41.7852 58.467 42.6242 58.467 43.6595C58.467 44.6947 59.3069 45.5345 60.342 45.5345C61.3772 45.5345 62.217 44.6947 62.217 43.6595C62.217 42.6244 61.3772 41.7845 60.342 41.7845V41.7852ZM52.0014 43.9759C47.5702 43.9759 43.9773 47.5688 43.9773 52.0002C43.9773 56.4316 47.5702 60.0227 52.0014 60.0227C56.4328 60.0227 60.0244 56.4316 60.0244 52.0002C60.0244 47.5689 56.4325 43.9759 52.0011 43.9759H52.0014ZM52.0014 46.7917C54.8778 46.7917 57.2098 49.1234 57.2098 52.0002C57.2098 54.8766 54.8778 57.2086 52.0014 57.2086C49.1248 57.2086 46.7931 54.8766 46.7931 52.0002C46.7931 49.1234 49.1248 46.7917 52.0014 46.7917Z" fill="#D9D9D9"/>
</g>
<defs>
<radialGradient id="paint0_radial_3808_7274" cx="0" cy="0" r="1" gradientUnits="userSpaceOnUse" gradientTransform="translate(27.625 112.01) rotate(-90) scale(103.072 95.8648)">
<stop stop-color="#FFDD55"/>
<stop offset="0.1" stop-color="#FFDD55"/>
<stop offset="0.5" stop-color="#FF543E"/>
<stop offset="1" stop-color="#C837AB"/>
</radialGradient>
<clipPath id="clip0_3808_7274">
<rect width="40" height="40" fill="white" transform="translate(32 32)"/>
</clipPath>
</defs>
</svg>
