<svg width="52" height="52" viewBox="0 0 52 52" fill="none" xmlns="http://www.w3.org/2000/svg">
<path d="M26 0C20.8577 0 15.8309 1.52487 11.5552 4.38179C7.27951 7.23871 3.94702 11.2994 1.97914 16.0502C0.0112654 20.8011 -0.503621 26.0289 0.499595 31.0724C1.50281 36.1159 3.97907 40.7486 7.61524 44.3848C11.2514 48.021 15.8842 50.4972 20.9277 51.5004C25.9712 52.5036 31.1989 51.9888 35.9498 50.0209C40.7007 48.053 44.7613 44.7205 47.6182 40.4448C50.4752 36.1692 52 31.1423 52 26C51.9868 19.1084 49.2433 12.5029 44.3702 7.62982C39.4971 2.75674 32.8916 0.0132149 26 0ZM26 48C21.6488 48 17.3954 46.7097 13.7775 44.2923C10.1596 41.875 7.33979 38.439 5.67466 34.419C4.00953 30.3991 3.57386 25.9756 4.42274 21.708C5.27161 17.4404 7.36691 13.5204 10.4437 10.4437C13.5204 7.3669 17.4404 5.2716 21.708 4.42272C25.9756 3.57385 30.3991 4.00952 34.4191 5.67465C38.439 7.33978 41.875 10.1596 44.2924 13.7775C46.7097 17.3953 48 21.6488 48 26C47.9934 31.8327 45.6734 37.4247 41.5491 41.5491C37.4247 45.6734 31.8328 47.9934 26 48ZM38 26C38 26.5304 37.7893 27.0391 37.4142 27.4142C37.0392 27.7893 36.5305 28 36 28H20.825L25.9 33.075C26.274 33.4499 26.4841 33.9579 26.4841 34.4875C26.4841 35.0171 26.274 35.5251 25.9 35.9C25.7138 36.0874 25.4915 36.2349 25.2465 36.3338C25.0016 36.4326 24.7391 36.4807 24.475 36.475C24.2147 36.4802 23.9561 36.4318 23.7153 36.3329C23.4745 36.234 23.2565 36.0867 23.075 35.9L14.575 27.425C14.1995 27.0458 13.9888 26.5337 13.9888 26C13.9888 25.4663 14.1995 24.9542 14.575 24.575L23.075 16.1C23.4555 15.7553 23.9539 15.5701 24.4671 15.5827C24.9804 15.5953 25.4691 15.8049 25.8321 16.1679C26.1952 16.5309 26.4047 17.0196 26.4173 17.5329C26.43 18.0461 26.2447 18.5446 25.9 18.925L20.825 24H36C36.5305 24 37.0392 24.2107 37.4142 24.5858C37.7893 24.9609 38 25.4696 38 26Z" fill="#353535"/>
</svg>
