<svg width="33" height="33" viewBox="0 0 33 33" fill="none" xmlns="http://www.w3.org/2000/svg">
<path d="M13.5534 13.5234C15.0653 12.0116 17.1004 11.1388 19.2378 11.0854C21.3752 11.032 23.4513 11.8023 25.0367 13.2367L25.3384 13.5234L30.0517 18.2384C31.5868 19.7762 32.4605 21.8527 32.4867 24.0254C32.5128 26.198 31.6894 28.295 30.1918 29.8693C28.6942 31.4436 26.641 32.3707 24.4697 32.4531C22.2984 32.5354 20.1809 31.7664 18.5684 30.31L18.2684 30.0234L14.7317 26.4867C14.4328 26.1868 14.2593 25.7843 14.2463 25.3611C14.2334 24.9378 14.3821 24.5255 14.6621 24.2079C14.9422 23.8903 15.3326 23.6912 15.7542 23.651C16.1757 23.6109 16.5967 23.7327 16.9317 23.9917L17.0884 24.13L20.6251 27.6667C21.5418 28.5888 22.7818 29.1175 24.0819 29.1407C25.382 29.1638 26.64 28.6795 27.589 27.7906C28.538 26.9016 29.1034 25.678 29.1652 24.3791C29.227 23.0802 28.7804 21.8084 27.9201 20.8334L27.6951 20.595L22.9817 15.88C22.5174 15.4157 21.9662 15.0473 21.3595 14.796C20.7528 14.5446 20.1026 14.4153 19.4459 14.4153C18.7892 14.4153 18.139 14.5446 17.5323 14.796C16.9256 15.0473 16.3744 15.4157 15.9101 15.88C15.5957 16.1836 15.1747 16.3516 14.7377 16.3478C14.3007 16.344 13.8827 16.1688 13.5737 15.8597C13.2647 15.5507 13.0894 15.1327 13.0856 14.6957C13.0818 14.2587 13.2498 13.8377 13.5534 13.5234ZM2.94672 2.91671C4.45861 1.40493 6.49372 0.53209 8.63111 0.478733C10.7685 0.425376 12.8446 1.19558 14.4301 2.63004L14.7317 2.91671L18.2667 6.45504C18.5656 6.75497 18.7392 7.15743 18.7521 7.58068C18.765 8.00393 18.6164 8.41623 18.3363 8.73384C18.0563 9.05145 17.6658 9.25055 17.2443 9.29071C16.8227 9.33086 16.4017 9.20906 16.0667 8.95004L15.9101 8.81171L12.3751 5.27671C11.4567 4.36431 10.2202 3.84367 8.92578 3.82433C7.63136 3.80499 6.37989 4.28846 5.43466 5.17302C4.48943 6.05758 3.92413 7.27428 3.85768 8.56714C3.79124 9.86 4.22883 11.1282 5.07839 12.105L5.30339 12.345L10.0184 17.06C10.956 17.9974 12.2276 18.524 13.5534 18.524C14.8792 18.524 16.1508 17.9974 17.0884 17.06C17.2431 16.9052 17.4269 16.7823 17.6291 16.6985C17.8313 16.6146 18.0481 16.5714 18.267 16.5714C18.4859 16.5713 18.7027 16.6143 18.9049 16.698C19.1072 16.7817 19.291 16.9045 19.4459 17.0592C19.6007 17.2139 19.7236 17.3977 19.8074 17.5999C19.8913 17.8021 19.9345 18.0189 19.9346 18.2378C19.9346 18.4567 19.8916 18.6735 19.8079 18.8758C19.7242 19.078 19.6015 19.2619 19.4467 19.4167C17.9348 20.9285 15.8997 21.8013 13.7623 21.8547C11.625 21.908 9.54882 21.1378 7.96339 19.7034L7.66006 19.4167L2.94672 14.7017C1.38446 13.139 0.506836 11.0197 0.506836 8.81004C0.506836 6.60034 1.38446 4.47944 2.94672 2.91671Z" fill="#FA6B05"/>
</svg>
