<svg width="19" height="28" viewBox="0 0 19 28" fill="none" xmlns="http://www.w3.org/2000/svg">
<path d="M9.5013 0.844727C4.3413 0.844727 0.167969 5.01806 0.167969 10.1781C0.167969 17.1781 9.5013 27.5114 9.5013 27.5114C9.5013 27.5114 18.8346 17.1781 18.8346 10.1781C18.8346 5.01806 14.6613 0.844727 9.5013 0.844727ZM9.5013 13.5114C8.61725 13.5114 7.7694 13.1602 7.14428 12.5351C6.51916 11.91 6.16797 11.0621 6.16797 10.1781C6.16797 9.29401 6.51916 8.44616 7.14428 7.82104C7.7694 7.19592 8.61725 6.84473 9.5013 6.84473C10.3854 6.84473 11.2332 7.19592 11.8583 7.82104C12.4834 8.44616 12.8346 9.29401 12.8346 10.1781C12.8346 11.0621 12.4834 11.91 11.8583 12.5351C11.2332 13.1602 10.3854 13.5114 9.5013 13.5114Z" fill="white"/>
</svg>
