<svg width="224" height="51" viewBox="0 0 224 51" fill="none" xmlns="http://www.w3.org/2000/svg">
<path d="M0.398438 41V0.133789H16.8242C25.4336 0.133789 31.1826 5.68457 31.1826 14.0957V14.1523C31.1826 22.5635 25.4336 28.1143 16.8242 28.1143H8.95117V41H0.398438ZM14.7285 6.90234H8.95117V21.4307H14.7285C19.6279 21.4307 22.5166 18.8252 22.5166 14.1807V14.124C22.5166 9.47949 19.6279 6.90234 14.7285 6.90234ZM42.5957 41.4814C36.5068 41.4814 32.4004 37.6582 32.4004 32.3057V32.249C32.4004 26.7266 36.6768 23.498 44.21 23.0166L51.7148 22.5635V20.6943C51.7148 18.0039 49.959 16.333 46.7305 16.333C43.6436 16.333 41.7744 17.7773 41.3779 19.7314L41.3213 19.9863H33.7598L33.7881 19.6465C34.2412 14.0391 39.0557 10.0176 47.0703 10.0176C54.915 10.0176 59.9844 14.0674 59.9844 20.1846V41H51.7148V36.4688H51.5449C49.8174 39.584 46.5889 41.4814 42.5957 41.4814ZM40.585 31.8809C40.585 34.1182 42.4258 35.4492 45.2861 35.4492C48.9961 35.4492 51.7148 33.0703 51.7148 29.8984V27.7178L45.4561 28.1143C42.2559 28.3125 40.585 29.6719 40.585 31.8242V31.8809ZM69.9248 50.9971C68.3105 50.9971 66.668 50.7988 65.7051 50.6289V44.4834C66.2998 44.5967 67.2627 44.7666 68.4805 44.7666C70.9443 44.7666 72.3037 44.0586 73.04 41.9912L73.4082 41L62.6748 10.6406H71.7656L78.166 34.373H78.3926L84.8213 10.6406H93.5439L83.1221 41.5381C80.7432 48.7031 76.665 50.9971 69.9248 50.9971ZM106.6 41.623C98.9531 41.623 94.252 35.6758 94.252 25.8203V25.792C94.252 15.9082 98.9531 10.0176 106.6 10.0176C110.904 10.0176 114.303 12.2266 115.945 15.9082H116.115V0.133789H124.385V41H116.115V35.8174H115.945C114.331 39.4141 110.989 41.623 106.6 41.623ZM109.375 34.7695C113.396 34.7695 116.144 31.3145 116.144 25.8203V25.792C116.144 20.3262 113.368 16.8711 109.375 16.8711C105.269 16.8711 102.663 20.2412 102.663 25.792V25.8203C102.663 31.3428 105.24 34.7695 109.375 34.7695ZM143.728 41.623C134.438 41.623 128.803 35.5908 128.803 25.877V25.8486C128.803 16.1914 134.495 10.0176 143.388 10.0176C152.28 10.0176 157.859 16.0498 157.859 25.2256V27.7744H136.959C137.044 32.6172 139.678 35.4492 143.897 35.4492C147.296 35.4492 149.363 33.5801 149.958 31.8809L150.015 31.7109H157.604L157.52 32.0225C156.585 36.4971 152.394 41.623 143.728 41.623ZM143.529 16.1914C140.131 16.1914 137.582 18.457 137.044 22.5635H149.93C149.42 18.3721 146.956 16.1914 143.529 16.1914ZM175.956 41.623C166.667 41.623 161.031 35.5908 161.031 25.877V25.8486C161.031 16.1914 166.724 10.0176 175.616 10.0176C184.509 10.0176 190.088 16.0498 190.088 25.2256V27.7744H169.188C169.272 32.6172 171.906 35.4492 176.126 35.4492C179.524 35.4492 181.592 33.5801 182.187 31.8809L182.243 31.7109H189.833L189.748 32.0225C188.813 36.4971 184.622 41.623 175.956 41.623ZM175.758 16.1914C172.359 16.1914 169.811 18.457 169.272 22.5635H182.158C181.648 18.3721 179.185 16.1914 175.758 16.1914ZM206.429 41.623C199.688 41.623 196.517 39.0176 196.517 32.5039V16.8711H192.297V10.6406H196.517V3.2207H204.871V10.6406H210.422V16.8711H204.871V31.5977C204.871 34.4297 206.146 35.3926 208.638 35.3926C209.374 35.3926 209.912 35.3076 210.422 35.251V41.3115C209.487 41.4531 208.156 41.623 206.429 41.623Z" fill="white"/>
<path d="M219.286 41.4814C216.709 41.4814 214.698 39.4424 214.698 36.8936C214.698 34.3164 216.709 32.3057 219.286 32.3057C221.835 32.3057 223.874 34.3164 223.874 36.8936C223.874 39.4424 221.835 41.4814 219.286 41.4814Z" fill="#FFC300"/>
</svg>
