<svg width="60" height="60" viewBox="0 0 60 60" fill="none" xmlns="http://www.w3.org/2000/svg">
<circle cx="30" cy="30" r="30" fill="#01010F"/>
<path d="M26.0333 18.8192C25.4375 18.0028 24.7786 17.5697 24.0567 17.5198C23.3368 17.4577 22.6573 17.6598 22.0184 18.1261C21.3794 18.5924 20.9762 19.1805 20.8087 19.8903C20.6432 20.5878 20.8583 21.3447 21.4542 22.1612L24.0967 25.7819C24.6925 26.5983 25.3504 27.0376 26.0704 27.0997C26.7922 27.1496 27.4726 26.9413 28.1116 26.475C28.7505 26.0087 29.1528 25.4268 29.3183 24.7293C29.4858 24.0195 29.2716 23.2564 28.6758 22.4399L26.0333 18.8192ZM28.1631 17.2648L30.8056 20.8855C31.6605 22.0569 31.9639 23.397 31.7157 24.9056C31.4776 26.3088 30.7374 27.4638 29.495 28.3706C28.5579 29.0545 27.5745 29.3098 26.5448 29.1364L29.8479 33.6622L28.5241 36.0973L28.4176 36.175L19.3244 23.7156C18.4695 22.5442 18.1661 21.2042 18.4143 19.6956C18.6523 18.2923 19.3926 17.1373 20.635 16.2306C21.8632 15.3342 23.1889 14.9814 24.6121 15.1723C26.1142 15.3817 27.2979 16.0792 28.1631 17.2648Z" fill="white"/>
<path d="M35.3546 42.3256C35.9504 43.142 36.6083 43.5813 37.3283 43.6434C38.0501 43.6933 38.7306 43.485 39.3695 43.0187C40.0084 42.5524 40.4107 41.9705 40.5763 41.273C40.7437 40.5632 40.5295 39.8001 39.9337 38.9836L37.2912 35.3629C36.6954 34.5465 36.0365 34.1134 35.3146 34.0635C34.5947 34.0014 33.9152 34.2035 33.2763 34.6698C32.6373 35.1361 32.2341 35.7242 32.0667 36.434C31.9011 37.1315 32.1162 37.8885 32.7121 38.7049L35.3546 42.3256ZM33.2247 43.88L30.5823 40.2593C29.7274 39.0879 29.424 37.7479 29.6722 36.2393C29.9103 34.836 30.6505 33.681 31.8929 32.7743C32.83 32.0903 33.8134 31.8351 34.843 32.0085L31.54 27.4826L32.8638 25.0475L32.9703 24.9698L42.0635 37.4292C42.9184 38.6006 43.2218 39.9407 42.9736 41.4493C42.7355 42.8525 41.9953 44.0075 40.7529 44.9143C39.5247 45.8106 38.199 46.1634 36.7758 45.9726C35.2737 45.7631 34.09 45.0656 33.2247 43.88Z" fill="#FFC300"/>
</svg>
