<svg width="27" height="22" viewBox="0 0 27 22" fill="none" xmlns="http://www.w3.org/2000/svg">
<path d="M2.83464 21.846C2.1013 21.846 1.47375 21.5851 0.951969 21.0634C0.429302 20.5407 0.167969 19.9127 0.167969 19.1794V3.17936C0.167969 2.44603 0.429302 1.81847 0.951969 1.2967C1.47375 0.774028 2.1013 0.512695 2.83464 0.512695H24.168C24.9013 0.512695 25.5293 0.774028 26.052 1.2967C26.5737 1.81847 26.8346 2.44603 26.8346 3.17936V19.1794C26.8346 19.9127 26.5737 20.5407 26.052 21.0634C25.5293 21.5851 24.9013 21.846 24.168 21.846H2.83464ZM13.5013 12.5127L24.168 5.84603V3.17936L13.5013 9.84603L2.83464 3.17936V5.84603L13.5013 12.5127Z" fill="white"/>
</svg>
