<svg width="32" height="32" viewBox="0 0 32 32" fill="none" xmlns="http://www.w3.org/2000/svg">
<g id="material-symbols-light:switch-access" clipPath="url(#clip0_7564_4791)">
<path id="Vector" d="M7.384 24.614V7.38205H24.616V24.614H7.384ZM0 24.614V22.152H2.46V24.612L0 24.614ZM0 9.84405V7.38405H2.46V9.84405H0ZM7.384 31.998V29.538H9.846V31.998H7.384ZM7.384 2.45805V-0.00195312H9.846V2.45805H7.384ZM22.154 31.998V29.538H24.614V31.998H22.154ZM22.154 2.45805V-0.00195312H24.614V2.45805H22.154ZM29.538 24.614V22.152H32V24.612L29.538 24.614ZM29.538 9.84405V7.38405H32V9.84405H29.538Z" fill="#F00F55"/>
</g>
<defs>
<clipPath id="clip0_7564_4791">
<rect width="32" height="32" fill="white"/>
</clipPath>
</defs>
</svg>
