<svg width="104" height="104" viewBox="0 0 104 104" fill="none" xmlns="http://www.w3.org/2000/svg">
<circle cx="52" cy="52" r="52" fill="#1D9BF0"/>
<g clipPath="url(#clip0_3808_7266)">
<path d="M52.0007 35.3334C61.2057 35.3334 68.6673 42.795 68.6673 52C68.6673 61.205 61.2057 68.6667 52.0007 68.6667C49.1639 68.6709 46.3735 67.9479 43.8957 66.5667L43.3873 66.27L38.334 67.7567C38.059 67.8377 37.7679 67.8472 37.4882 67.7842C37.2085 67.7212 36.9496 67.5878 36.7359 67.3966C36.5222 67.2055 36.3609 66.963 36.2672 66.692C36.1736 66.421 36.1507 66.1307 36.2007 65.8484L36.244 65.6667L37.7307 60.6134C36.1589 58.0155 35.33 55.0363 35.334 52C35.334 42.795 42.7957 35.3334 52.0007 35.3334ZM52.0007 38.6667C49.6134 38.6663 47.2698 39.3068 45.2145 40.5214C43.1593 41.736 41.4679 43.4801 40.3169 45.5716C39.1659 47.6631 38.5976 50.0253 38.6713 52.4114C38.7449 54.7976 39.4579 57.1202 40.7357 59.1367C41.0657 59.6567 41.2073 60.2967 41.0957 60.9317L41.0307 61.2034L40.2957 63.705L42.7973 62.97C43.519 62.7567 44.269 62.8867 44.864 63.265C46.6112 64.3714 48.5918 65.0561 50.6492 65.2651C52.7067 65.4741 54.7845 65.2017 56.7185 64.4693C58.6525 63.737 60.3897 62.5648 61.7926 61.0455C63.1956 59.5262 64.2259 57.7013 64.8021 55.7152C65.3784 53.7291 65.4847 51.6362 65.1127 49.6019C64.7408 47.5676 63.9007 45.6477 62.659 43.994C61.4172 42.3403 59.8078 40.9981 57.958 40.0735C56.1082 39.1489 54.0687 38.6673 52.0007 38.6667ZM48.3223 48.3217C48.6093 48.0347 48.9912 47.8624 49.3962 47.8369C49.8012 47.8114 50.2017 47.9346 50.5223 48.1834L50.679 48.3217L54.5007 52.1434L58.3223 48.3217C58.6223 48.0228 59.0247 47.8493 59.448 47.8363C59.8712 47.8234 60.2835 47.9721 60.6011 48.2521C60.9187 48.5322 61.1178 48.9226 61.158 49.3442C61.1982 49.7657 61.0764 50.1867 60.8173 50.5217L60.679 50.6784L55.679 55.6784C55.392 55.9653 55.0102 56.1377 54.6051 56.1632C54.2001 56.1887 53.7997 56.0655 53.479 55.8167L53.3223 55.6784L49.5007 51.8567L45.679 55.6784C45.3791 55.9773 44.9766 56.1508 44.5534 56.1638C44.1301 56.1767 43.7178 56.028 43.4002 55.748C43.0826 55.4679 42.8835 55.0775 42.8433 54.6559C42.8032 54.2344 42.925 53.8134 43.184 53.4784L43.3223 53.3217L48.3223 48.3217Z" fill="white"/>
</g>
<defs>
<clipPath id="clip0_3808_7266">
<rect width="40" height="40" fill="white" transform="translate(32 32)"/>
</clipPath>
</defs>
</svg>
