<svg width="24" height="25" viewBox="0 0 24 25" fill="none" xmlns="http://www.w3.org/2000/svg">
<g clip-path="url(#clip0_2350_3479)">
<path fill-rule="evenodd" clip-rule="evenodd" d="M11.9994 5.50586C12.2646 5.50592 12.5189 5.61131 12.7064 5.79886L17.7064 10.7989C17.8886 10.9875 17.9894 11.2401 17.9871 11.5023C17.9848 11.7645 17.8797 12.0153 17.6942 12.2007C17.5088 12.3861 17.258 12.4913 16.9958 12.4935C16.7336 12.4958 16.481 12.395 16.2924 12.2129L11.9994 7.91986L7.70643 12.2129C7.51783 12.395 7.26523 12.4958 7.00303 12.4935C6.74083 12.4913 6.49002 12.3861 6.30461 12.2007C6.1192 12.0153 6.01403 11.7645 6.01176 11.5023C6.00948 11.2401 6.11027 10.9875 6.29243 10.7989L11.2924 5.79886C11.4799 5.61131 11.7342 5.50592 11.9994 5.50586ZM11.9994 11.5059C12.2646 11.5059 12.5189 11.6113 12.7064 11.7989L17.7064 16.7989C17.8886 16.9875 17.9894 17.2401 17.9871 17.5023C17.9848 17.7645 17.8797 18.0153 17.6942 18.2007C17.5088 18.3861 17.258 18.4913 16.9958 18.4935C16.7336 18.4958 16.481 18.395 16.2924 18.2129L11.9994 13.9199L7.70643 18.2129C7.51783 18.395 7.26523 18.4958 7.00303 18.4935C6.74083 18.4913 6.49002 18.3861 6.30461 18.2007C6.1192 18.0153 6.01403 17.7645 6.01176 17.5023C6.00948 17.2401 6.11027 16.9875 6.29243 16.7989L11.2924 11.7989C11.4799 11.6113 11.7342 11.5059 11.9994 11.5059Z" fill="#FFAA00"/>
</g>
<defs>
<clipPath id="clip0_2350_3479">
<rect width="24" height="24" fill="white" transform="translate(0 0.505859)"/>
</clipPath>
</defs>
</svg>
