<svg width="16" height="16" viewBox="0 0 16 16" fill="none" xmlns="http://www.w3.org/2000/svg">
<g clip-path="url(#clip0_2350_3314)">
<path d="M9.962 9.73005C10.0247 9.73005 10.162 9.79339 10.346 10.0381C10.851 10.7395 11.3324 11.4577 11.7893 12.1914C10.7047 12.6221 9.39267 12.8647 8 12.8647C7.34133 12.8647 6.70133 12.8001 6.096 12.6914C7.04067 11.6867 8.04133 10.7874 9.23133 10.0381C9.60133 9.85272 9.77733 9.73005 9.962 9.73005ZM11.578 5.59539C13.4833 6.29872 14.77 7.53272 14.77 8.92739C14.77 9.87072 14.1827 10.7474 13.2113 11.4307C12.9547 9.92405 12.6127 8.44605 12.1153 7.02005C11.9497 6.54023 11.7701 6.06536 11.5767 5.59605L11.578 5.59539ZM5.15333 5.38405C4.87742 6.10353 4.63362 6.83492 4.42267 7.57605C4.04486 8.98072 3.74947 10.4063 3.538 11.8454C2.13133 11.1121 1.23 10.0521 1.23 8.92205C1.23067 7.40605 2.85667 6.03072 5.15333 5.38405ZM8.30867 0.0567205C8.24533 0.0567205 8.25533 0.0520538 8.19267 0.114054C7.21295 1.28324 6.39186 2.57663 5.75067 3.96072C2.42067 4.59272 0 6.59072 0 8.92272C0 10.6481 1.32733 12.1914 3.36533 13.1341C3.26064 14.0226 3.1835 14.9141 3.134 15.8074C3.134 15.8701 3.206 15.9421 3.26933 15.9421H3.32667C3.38933 15.9421 3.38 15.9467 3.442 15.8847C3.98773 15.1587 4.55191 14.4466 5.134 13.7494C6.026 13.9734 6.98733 14.0961 8 14.0961C9.63667 14.0961 11.1587 13.7761 12.4233 13.2307C12.73 13.7454 13.0287 14.2674 13.3467 14.8274C13.3467 14.8901 13.476 14.8847 13.5387 14.8847C13.5691 14.8844 13.5983 14.8721 13.6198 14.8506C13.6414 14.829 13.6537 14.7999 13.654 14.7694C13.5924 14.0815 13.5154 13.3952 13.4233 12.7107C15.0027 11.7641 16 10.4107 16 8.92272C16 6.75472 13.896 4.87472 10.9233 4.11472C10.2335 2.69688 9.39553 1.35607 8.42333 0.114721C8.42333 0.0520538 8.37133 0.0567205 8.30867 0.0567205Z" fill="white"/>
</g>
<defs>
<clipPath id="clip0_2350_3314">
<rect width="16" height="16" fill="white"/>
</clipPath>
</defs>
</svg>
