<svg width="16" height="17" viewBox="0 0 16 17" fill="none" xmlns="http://www.w3.org/2000/svg">
<path d="M4.604 3.53054C4.54327 3.49453 4.47409 3.47524 4.40349 3.47462C4.33289 3.47401 4.26339 3.49209 4.20204 3.52703C4.14069 3.56197 4.08968 3.61253 4.0542 3.67356C4.01871 3.7346 4.00001 3.80394 4 3.87454V13.1372C4.00001 13.2078 4.01871 13.2771 4.0542 13.3382C4.08968 13.3992 4.14069 13.4498 4.20204 13.4847C4.26339 13.5197 4.33289 13.5377 4.40349 13.5371C4.47409 13.5365 4.54327 13.5172 4.604 13.4812L12.4193 8.84987C12.479 8.81446 12.5285 8.76412 12.5628 8.7038C12.5972 8.64349 12.6152 8.57528 12.6152 8.50587C12.6152 8.43647 12.5972 8.36826 12.5628 8.30794C12.5285 8.24763 12.479 8.19729 12.4193 8.16187L4.604 3.53054Z" fill="white" stroke="white" stroke-width="1.25" stroke-linecap="round" stroke-linejoin="round"/>
</svg>
