<svg width="41" height="41" viewBox="0 0 41 41" fill="none" xmlns="http://www.w3.org/2000/svg">
<path d="M14.6156 11.3844C14.3811 11.1498 14.2493 10.8317 14.2493 10.5C14.2493 10.1683 14.3811 9.85018 14.6156 9.61562C14.8502 9.38107 15.1683 9.2493 15.5 9.2493C15.8317 9.2493 16.1498 9.38107 16.3844 9.61562L19.25 12.4828V4.25C19.25 3.91848 19.3817 3.60054 19.6161 3.36612C19.8505 3.1317 20.1685 3 20.5 3C20.8315 3 21.1495 3.1317 21.3839 3.36612C21.6183 3.60054 21.75 3.91848 21.75 4.25V12.4828L24.6156 9.61562C24.8502 9.38107 25.1683 9.2493 25.5 9.2493C25.8317 9.2493 26.1498 9.38107 26.3844 9.61562C26.6189 9.85018 26.7507 10.1683 26.7507 10.5C26.7507 10.8317 26.6189 11.1498 26.3844 11.3844L21.3844 16.3844C21.2683 16.5006 21.1304 16.5928 20.9787 16.6557C20.8269 16.7186 20.6643 16.751 20.5 16.751C20.3357 16.751 20.1731 16.7186 20.0213 16.6557C19.8696 16.5928 19.7317 16.5006 19.6156 16.3844L14.6156 11.3844ZM21.3844 24.6156C21.2683 24.4994 21.1304 24.4072 20.9787 24.3443C20.8269 24.2814 20.6643 24.249 20.5 24.249C20.3357 24.249 20.1731 24.2814 20.0213 24.3443C19.8696 24.4072 19.7317 24.4994 19.6156 24.6156L14.6156 29.6156C14.4995 29.7318 14.4074 29.8696 14.3445 30.0214C14.2817 30.1731 14.2493 30.3358 14.2493 30.5C14.2493 30.6642 14.2817 30.8269 14.3445 30.9786C14.4074 31.1304 14.4995 31.2682 14.6156 31.3844C14.8502 31.6189 15.1683 31.7507 15.5 31.7507C15.6642 31.7507 15.8269 31.7183 15.9786 31.6555C16.1304 31.5926 16.2682 31.5005 16.3844 31.3844L19.25 28.5172V36.75C19.25 37.0815 19.3817 37.3995 19.6161 37.6339C19.8505 37.8683 20.1685 38 20.5 38C20.8315 38 21.1495 37.8683 21.3839 37.6339C21.6183 37.3995 21.75 37.0815 21.75 36.75V28.5172L24.6156 31.3844C24.7318 31.5005 24.8696 31.5926 25.0214 31.6555C25.1731 31.7183 25.3358 31.7507 25.5 31.7507C25.6642 31.7507 25.8269 31.7183 25.9786 31.6555C26.1304 31.5926 26.2682 31.5005 26.3844 31.3844C26.5005 31.2682 26.5926 31.1304 26.6555 30.9786C26.7183 30.8269 26.7507 30.6642 26.7507 30.5C26.7507 30.3358 26.7183 30.1731 26.6555 30.0214C26.5926 29.8696 26.5005 29.7318 26.3844 29.6156L21.3844 24.6156ZM36.75 19.25H28.5172L31.3844 16.3844C31.5005 16.2682 31.5926 16.1304 31.6555 15.9786C31.7183 15.8269 31.7507 15.6642 31.7507 15.5C31.7507 15.3358 31.7183 15.1731 31.6555 15.0214C31.5926 14.8696 31.5005 14.7318 31.3844 14.6156C31.2682 14.4995 31.1304 14.4074 30.9786 14.3445C30.8269 14.2817 30.6642 14.2493 30.5 14.2493C30.3358 14.2493 30.1731 14.2817 30.0214 14.3445C29.8696 14.4074 29.7318 14.4995 29.6156 14.6156L24.6156 19.6156C24.4994 19.7317 24.4072 19.8696 24.3443 20.0213C24.2814 20.1731 24.249 20.3357 24.249 20.5C24.249 20.6643 24.2814 20.8269 24.3443 20.9787C24.4072 21.1304 24.4994 21.2683 24.6156 21.3844L29.6156 26.3844C29.7318 26.5005 29.8696 26.5926 30.0214 26.6555C30.1731 26.7183 30.3358 26.7507 30.5 26.7507C30.6642 26.7507 30.8269 26.7183 30.9786 26.6555C31.1304 26.5926 31.2682 26.5005 31.3844 26.3844C31.5005 26.2682 31.5926 26.1304 31.6555 25.9786C31.7183 25.8269 31.7507 25.6642 31.7507 25.5C31.7507 25.3358 31.7183 25.1731 31.6555 25.0214C31.5926 24.8696 31.5005 24.7318 31.3844 24.6156L28.5172 21.75H36.75C37.0815 21.75 37.3995 21.6183 37.6339 21.3839C37.8683 21.1495 38 20.8315 38 20.5C38 20.1685 37.8683 19.8505 37.6339 19.6161C37.3995 19.3817 37.0815 19.25 36.75 19.25ZM16.3844 19.6156L11.3844 14.6156C11.1498 14.3811 10.8317 14.2493 10.5 14.2493C10.1683 14.2493 9.85018 14.3811 9.61562 14.6156C9.38107 14.8502 9.2493 15.1683 9.2493 15.5C9.2493 15.8317 9.38107 16.1498 9.61562 16.3844L12.4828 19.25H4.25C3.91848 19.25 3.60054 19.3817 3.36612 19.6161C3.1317 19.8505 3 20.1685 3 20.5C3 20.8315 3.1317 21.1495 3.36612 21.3839C3.60054 21.6183 3.91848 21.75 4.25 21.75H12.4828L9.61562 24.6156C9.38107 24.8502 9.2493 25.1683 9.2493 25.5C9.2493 25.8317 9.38107 26.1498 9.61562 26.3844C9.85018 26.6189 10.1683 26.7507 10.5 26.7507C10.8317 26.7507 11.1498 26.6189 11.3844 26.3844L16.3844 21.3844C16.5006 21.2683 16.5928 21.1304 16.6557 20.9787C16.7186 20.8269 16.751 20.6643 16.751 20.5C16.751 20.3357 16.7186 20.1731 16.6557 20.0213C16.5928 19.8696 16.5006 19.7317 16.3844 19.6156Z" fill="#999999"/>
</svg>
