<svg width="172" height="133" viewBox="0 0 172 133" fill="none" xmlns="http://www.w3.org/2000/svg">
<path fill-rule="evenodd" clip-rule="evenodd" d="M1.94534 112.336C9.20312 127.758 19.5939 134.834 30.0979 131.511C39.0258 128.686 52.3654 112.742 64.5392 90.351C69.9687 80.3652 78.8095 64.1167 84.1873 54.2429C101.495 22.4651 113.432 9.20315 125.526 8.31312C130.274 7.9635 132.331 8.84045 136.09 12.8173C141.454 18.4929 147.244 34.5798 149.397 49.7873L150.84 59.9866L146.166 56.4959C142.611 53.8411 140.932 53.5632 139.153 55.3348C137.012 57.4675 137.523 58.3293 145.173 65.5098C150.005 70.0448 154.747 73.3256 156.413 73.2862C159.934 73.2006 172.533 57.2659 171.744 53.8921C170.786 49.7866 166.945 49.7654 162.849 53.8445L158.783 57.8944L157.826 49.4772C157.301 44.8473 154.979 35.0596 152.666 27.7275C149.358 17.2348 147.171 13.1005 142.41 8.32644C130.492 -3.6227 118.822 -2.41003 104.103 12.3105C93.4421 22.9706 87.7255 32.0599 69.0706 68.0027C50.0136 104.718 44.9837 113.052 37.1962 120.808C25.9378 132.021 15.1184 129.84 5.5321 114.422C0.326443 106.052 -1.51645 104.98 1.94534 112.336ZM102.889 35.2974C99.9309 40.8154 100.636 40.288 110.47 29.6255C121.002 18.2046 121.487 17.8705 127.532 17.8799C133.848 17.8897 133.836 17.8803 140.282 28.6089C141.621 30.8403 141.762 30.4276 140.884 26.846C139.675 21.9258 135.386 16.6485 130.999 14.6853C124.221 11.6534 109.954 22.1165 102.889 35.2974Z" fill="#E6E8EC"/>
</svg>
