<svg width="243" height="100" viewBox="0 0 243 100" fill="none" xmlns="http://www.w3.org/2000/svg">
<path fill-rule="evenodd" clip-rule="evenodd" d="M216.188 98.6803C204.909 101.093 189.605 98.8194 181.766 93.5667C179.728 92.2024 171.556 92.8771 161.509 95.2356C137.024 100.985 112.826 97.8388 87.4941 85.6119C61.7471 73.1843 46.6932 60.7425 29.6188 37.7782C22.2791 27.9077 15.6793 20.3064 14.9501 20.8883C14.2226 21.4689 12.7628 23.9565 11.7079 26.4159C10.146 30.0522 8.98562 30.6651 5.46769 29.7049C3.09239 29.0565 1.04469 27.6823 0.9193 26.65C0.605519 24.0461 11.4956 2.77253 14.2832 0.548065C16.9577 -1.5862 42.5143 10.508 42.951 14.1149C43.488 18.5497 37.0963 21.662 32.7332 19.0907C18.4304 10.6596 53.797 53.5657 70.6795 65.125C87.5054 76.646 106.241 84.3162 123.959 86.9376C139.81 89.2828 159.199 88.4136 163.257 85.1753C164.292 84.3496 161.788 79.8332 156.896 73.7026C137.957 49.9692 145.663 17.1527 172.509 7.22064C192.058 -0.0117733 214.963 17.423 216.239 40.5122C216.89 52.2373 207.727 68.72 194.841 79.0026C182.134 89.1429 182.274 90.3799 196.577 94.3543C209.245 97.8726 221.444 96.2707 232.904 89.5833L242.138 84.1947L235.047 90.1794C230.206 94.2645 224.225 96.9606 216.188 98.6803ZM177.405 79.8111C172.447 81.3958 169.578 79.7011 162.803 71.1882C149.782 54.8253 150.074 35.9378 163.55 22.8852C176.77 10.0792 190.033 10.1899 200.41 23.1939C212.288 38.0789 208.257 57.266 190.32 71.2011C184.93 75.3896 179.118 79.2635 177.405 79.8111ZM195.691 47.3156C197.668 35.2159 193.896 25.5093 185.446 20.9577L180.229 18.1464L186.442 19.3488C197.985 21.5812 203.594 35.0864 198.685 48.8243C194.687 60.0169 193.697 59.5178 195.691 47.3156ZM100.307 76.1231C95.4888 74.6273 87.8828 71.0094 83.4069 68.0845C75.1037 62.6591 55.8173 45.2039 55.9544 43.2369C56.0404 41.9863 56.0096 41.964 75.2962 56.9638C83.2959 63.1845 94.4705 70.4122 100.129 73.0225C112.348 78.6599 112.419 79.8817 100.307 76.1231Z" fill="#E6E8EC"/>
</svg>
