<svg width="25" height="25" viewBox="0 0 25 25" fill="none" xmlns="http://www.w3.org/2000/svg">
<path d="M22.14 16.5257L18.7534 16.1391C18.3552 16.0923 17.9515 16.1364 17.5728 16.268C17.1941 16.3996 16.8501 16.6154 16.5667 16.8991L14.1134 19.3524C10.3283 17.4273 7.25176 14.3508 5.32672 10.5657L7.79339 8.09905C8.36672 7.52572 8.64672 6.72572 8.55339 5.91239L8.16672 2.55239C8.09113 1.90195 7.77898 1.30203 7.2897 0.866848C6.80043 0.431663 6.1682 0.191606 5.51339 0.192385H3.20672C1.70005 0.192385 0.446721 1.44572 0.540054 2.95239C1.24672 14.3391 10.3534 23.4324 21.7267 24.1391C23.2334 24.2324 24.4867 22.9791 24.4867 21.4724V19.1657C24.5 17.8191 23.4867 16.6857 22.14 16.5257Z" fill="white"/>
</svg>
