<svg width="215" height="163" viewBox="0 0 215 163" fill="none" xmlns="http://www.w3.org/2000/svg">
<path fill-rule="evenodd" clip-rule="evenodd" d="M212.169 137.09C203.487 156.353 190.751 165.335 177.665 161.429C166.541 158.109 149.683 138.618 134.139 111.112C127.206 98.8458 115.918 78.886 109.052 66.757C86.953 27.7212 71.8884 11.5261 56.8803 10.6688C50.9871 10.332 48.4555 11.4607 43.8781 16.4664C37.345 23.6101 30.4944 43.6671 28.136 62.56L26.5541 75.2312L32.2765 70.8095C36.6289 67.4467 38.7045 67.0681 40.9453 69.2278C43.6427 71.8277 43.0266 72.9062 33.6903 81.9618C27.7943 87.681 21.9831 91.8438 19.9173 91.8288C15.5514 91.7944 -0.388344 72.2999 0.520333 68.1021C1.62445 62.994 6.38545 62.8897 11.5446 67.8623L16.6669 72.7994L17.6817 62.347C18.2386 56.5978 20.9175 44.419 23.635 35.2841C27.5221 22.2114 30.1482 17.0426 35.9533 11.0285C50.4818 -4.02436 64.9712 -2.75853 83.5142 15.1879C96.9448 28.184 104.215 39.3338 128.068 83.5045C152.435 128.625 158.839 138.852 168.649 148.307C182.831 161.977 196.197 159.054 207.766 139.748C214.048 129.268 216.31 127.902 212.169 137.09ZM85.4862 43.6547C89.2648 50.434 88.3806 49.7947 75.9751 36.7787C62.6886 22.837 62.0808 22.4328 54.5881 22.5673C46.7599 22.7078 46.7742 22.696 39.0029 36.1248C37.388 38.9178 37.2048 38.4091 38.2214 33.9519C39.6188 27.8289 44.828 21.2007 50.2261 18.6782C58.5649 14.7824 76.4617 27.4611 85.4862 43.6547Z" fill="#E6E8EC"/>
</svg>
