<svg width="182" height="121" viewBox="0 0 182 121" fill="none" xmlns="http://www.w3.org/2000/svg">
<path fill-rule="evenodd" clip-rule="evenodd" d="M27.9425 52.9338C18.7602 63.215 17.2401 79.2652 24.3484 90.8678C29.4761 99.2358 29.6914 98.8367 13.6494 110.704C7.62445 115.161 1.93115 119.521 0.997509 120.392C-1.65111 122.861 23.0985 107.446 27.8508 103.667C31.689 100.615 32.603 100.561 37.652 103.084C50.9337 109.725 63.7782 107.617 86.4058 95.0836C111.106 81.403 137.404 57.5204 160.06 28.1902C165.011 21.7806 169.616 15.821 170.295 14.9441C171.169 13.8132 172.233 14.8434 173.96 18.4928C175.803 22.3884 176.991 23.4521 178.857 22.8743C182.129 21.8609 181.919 17.6518 178.12 8.0916C174.35 -1.39102 172.764 -1.74727 160.514 4.14915C153.641 7.45726 152.613 8.38697 153.316 10.6545C153.852 12.3816 155.224 13.0228 157.272 12.5027C158.997 12.0637 160.658 12.1597 160.964 12.7157C161.665 13.9897 145.548 34.7654 134.914 46.296C109.301 74.0651 80.4244 94.709 61.3168 98.9088C53.2476 100.681 37.1531 98.3626 38.2206 95.5813C38.5278 94.7796 41.0269 91.9077 43.774 89.197C57.5826 75.5739 62.8893 61.6895 57.8127 52.4652C54.606 46.6385 49.1823 43.9349 42.2376 44.7009C35.6949 45.4226 33.5456 46.6615 27.9425 52.9338ZM31.0014 58.5698C25.1152 66.4094 24.0825 75.9604 28.1382 85.0476C32.4569 94.7247 34.1708 94.397 44.1052 82.0031C57.2393 65.6204 58.4799 53.6558 47.377 50.4792C41.3812 48.7622 36.5866 51.1322 31.0014 58.5698ZM58.1817 110.574C66.0932 111.671 79.2007 107.445 91.4206 99.8574C102.125 93.211 116.244 82.0177 114.539 81.5289C114.141 81.4148 110.293 83.9745 105.991 87.2166C89.3215 99.7746 73.2037 107.213 57.5562 109.572C54.4741 110.037 54.4898 110.062 58.1817 110.574Z" fill="#E6E8EC"/>
</svg>
