<svg width="53" height="48" viewBox="0 0 53 48" fill="none" xmlns="http://www.w3.org/2000/svg">
<path d="M24.8666 0.950807C24.4175 0.951671 23.9685 0.961954 23.5199 0.981651C22.5558 1.15304 22.1107 1.57512 21.869 2.05823C21.6026 2.59089 21.613 3.30762 21.91 3.94495C22.2072 4.5826 22.7522 5.10389 23.5131 5.29857C24.2741 5.49326 25.3217 5.39264 26.6986 4.5125L27.7993 6.23515C26.0692 7.34093 24.3951 7.63264 23.0072 7.2775C21.6195 6.92236 20.5897 5.95154 20.0576 4.80967C19.5562 3.73385 19.4641 2.47167 19.945 1.35079C15.2509 2.10985 11.0006 3.90995 7.73586 6.44351C6.66289 7.61251 6.55789 8.97117 7.0282 9.89911C7.55649 10.941 8.80117 11.7016 11.2905 10.9141L11.9092 12.8624C8.78324 13.8512 6.20669 12.7981 5.20667 10.8253C4.96277 10.3444 4.8138 9.82386 4.75528 9.28715C4.22875 9.9119 3.75341 10.5622 3.33341 11.2388L3.34719 11.2454C2.40503 13.3909 2.3836 14.877 2.75919 15.8427C3.135 16.8084 3.92239 17.422 5.13482 17.7602C7.55944 18.4362 11.4857 17.6205 14.2505 15.5557C15.4339 14.6719 16.5557 12.5285 16.6534 10.8662C16.7021 10.035 16.526 9.37826 16.1782 8.95892C15.8304 8.53957 15.2734 8.22578 14.1205 8.2377L14.1001 6.19392C15.6846 6.17751 16.9712 6.71389 17.7505 7.65342C18.5296 8.59295 18.7633 9.80286 18.6938 10.9859C18.5549 13.352 17.3162 15.8172 15.474 17.1929C12.2063 19.6335 7.89041 20.6498 4.58794 19.7291C3.058 19.3025 1.70372 18.3744 1.00591 16.9367C-0.0381827 21.9074 1.47874 26.5245 4.36569 29.7198C4.74303 30.1376 5.14466 30.5325 5.56553 30.8989C5.26432 30.0363 5.12628 29.138 5.15866 28.2637C5.21663 26.6969 5.82388 25.1634 7.0421 24.1042C8.04113 23.2351 9.42122 22.7337 11.0718 22.737C11.1818 22.737 11.2943 22.739 11.4067 22.7436C11.6637 22.7545 11.9277 22.7768 12.1964 22.812L11.9295 24.839C10.2246 24.615 9.11803 25.0054 8.38183 25.6456C7.64574 26.2859 7.23963 27.244 7.19916 28.339C7.11822 30.5291 8.51931 33.0865 11.5402 33.8283L11.5368 33.8488C14.5109 34.4165 17.8297 33.8895 21.1617 31.856C21.1637 31.8547 21.1664 31.8542 21.1685 31.8527C21.862 31.366 22.2355 30.8894 22.4196 30.4787C22.6367 29.9939 22.6321 29.5717 22.4775 29.1183C22.1687 28.2115 21.0622 27.2795 20.0474 27.0197C18.4066 26.5997 17.3642 27.1768 16.8756 27.8641C16.3869 28.5509 16.3571 29.2258 17.1114 29.812L15.8568 31.4253C14.3051 30.2186 14.2062 28.0908 15.211 26.6779C15.9648 25.6183 17.2875 24.8922 18.882 24.8459C18.9492 24.8434 19.0165 24.8424 19.0837 24.8426C19.5547 24.8459 20.0451 24.9106 20.5534 25.0405C22.2493 25.4748 23.8172 26.7115 24.4122 28.4585C24.5709 28.9268 24.6405 29.4208 24.6173 29.9147C26.445 28.9809 28.3724 28.1516 30.3357 27.5288C33.634 26.0216 35.064 23.3794 35.0082 21.1545C34.9519 18.913 33.5658 17.0266 30.3733 16.711L30.575 14.6773C34.5853 15.0739 36.9693 17.9419 37.0487 21.103C37.0948 22.9449 36.4193 24.8615 35.0594 26.493C36.8172 26.2962 38.5642 26.3295 40.258 26.671C39.9132 25.9631 39.7461 25.1968 39.7694 24.4356C39.8434 22.0254 41.8934 19.777 45.1151 19.7427C45.3352 19.7407 45.5552 19.7486 45.7746 19.7666L45.6105 21.8037C42.8842 21.5852 41.859 23.0162 41.8133 24.5005C41.7682 25.9683 42.7479 27.6113 45.5561 27.8294C48.6514 27.8567 50.8704 26.178 51.9578 23.6834C53.4136 20.3435 52.7231 15.3362 48.1467 10.7566C48.0601 10.6699 47.9741 10.5824 47.887 10.4968C47.8389 10.9047 47.7343 11.3039 47.5761 11.6829C46.7832 13.5849 44.9256 14.8688 42.996 15.2274C40.3344 15.722 38.1518 14.6426 37.1445 12.9955C36.1371 11.3487 36.4016 9.01973 38.2142 7.79364L39.3593 9.48895C38.3845 10.1483 38.3443 11.041 38.8876 11.9291C39.4309 12.8175 40.6562 13.5868 42.6234 13.2213C43.86 12.9914 45.237 11.982 45.6892 10.897C45.9156 10.3545 45.9593 9.81839 45.7338 9.20501C45.5506 8.70681 45.1665 8.13707 44.4519 7.53704L44.4315 7.52009C41.4438 5.26839 38.2695 3.64898 35.0526 2.58104C35.0546 2.58454 35.0575 2.5876 35.0595 2.59121C35.7905 3.92778 35.8448 5.44393 35.3945 6.78509C34.494 9.46751 31.6681 11.581 28.1722 11.4642C27.4123 11.439 26.6891 11.8054 26.0738 12.5204C25.4583 13.2354 25.009 14.2827 24.9048 15.3984C24.6964 17.6296 25.662 20.089 29.4268 21.3046L28.7972 23.2495C24.3038 21.7988 22.5814 18.2679 22.8669 15.2105C23.0099 13.6819 23.6004 12.2615 24.5247 11.1877C25.4491 10.1138 26.7642 9.3717 28.2402 9.42059C30.8695 9.50831 32.8692 7.88015 33.4559 6.13245C33.7493 5.25876 33.7113 4.38934 33.2645 3.57253C32.8305 2.77934 31.9706 1.99501 30.4311 1.42265C28.5935 1.10351 26.7316 0.945632 24.8666 0.950807ZM35.9372 28.5065C31.3528 28.8795 26.3816 31.0659 22.2347 33.5993C16.1119 37.3397 9.66863 36.5232 5.09697 33.1311C6.89553 39.5672 13.2686 40.8736 19.9173 39.2457C20.5826 38.9958 21.2363 38.5306 21.7938 37.93C22.5657 37.0979 23.1249 36.0192 23.301 35.1272L25.3074 35.5237C25.04 36.8781 24.3145 38.2215 23.2942 39.3212C22.3153 40.3761 21.04 41.2189 19.5652 41.4402C18.8252 43.0885 18.2162 44.6865 17.969 45.805C17.5807 47.5615 19.5228 48.2358 20.3923 46.4645C22.4728 42.227 25.4093 38.455 29.0773 35.2025C31.9281 33.3264 34.3717 31.0131 35.9373 28.5065H35.9372Z" fill="#F66994"/>
</svg>
