<svg width="121" height="121" viewBox="0 0 121 121" fill="none" xmlns="http://www.w3.org/2000/svg">
<path d="M35.03 23.191C34.5745 22.9209 34.0557 22.7762 33.5262 22.7716C32.9967 22.767 32.4754 22.9026 32.0153 23.1646C31.5552 23.4267 31.1726 23.8059 30.9065 24.2636C30.6403 24.7214 30.5001 25.2414 30.5 25.771V95.241C30.5001 95.7705 30.6403 96.2905 30.9065 96.7483C31.1726 97.2061 31.5552 97.5852 32.0153 97.8473C32.4754 98.1094 32.9967 98.245 33.5262 98.2403C34.0557 98.2357 34.5745 98.091 35.03 97.821L93.645 63.086C94.0927 62.8203 94.4635 62.4428 94.7211 61.9904C94.9787 61.5381 95.1141 61.0265 95.1141 60.506C95.1141 59.9854 94.9787 59.4738 94.7211 59.0215C94.4635 58.5691 94.0927 58.1916 93.645 57.926L35.03 23.191Z" fill="white" stroke="white" stroke-width="1.25" stroke-linecap="round" stroke-linejoin="round"/>
</svg>
