<svg width="40" height="36" viewBox="0 0 40 36" fill="none" xmlns="http://www.w3.org/2000/svg">
<path d="M18.5008 0.148776C18.1576 0.149436 17.8145 0.157295 17.4716 0.172348C16.7349 0.303332 16.3947 0.625902 16.2099 0.995115C16.0064 1.40219 16.0143 1.94995 16.2413 2.43703C16.4684 2.92435 16.8849 3.32274 17.4664 3.47152C18.048 3.62031 18.8487 3.54341 19.901 2.87077L20.7421 4.1873C19.4199 5.03238 18.1405 5.25532 17.0798 4.9839C16.0193 4.71249 15.2323 3.97055 14.8256 3.09788C14.4424 2.2757 14.3721 1.31108 14.7395 0.454461C11.1521 1.03457 7.90385 2.41028 5.4088 4.34654C4.58879 5.23994 4.50855 6.27828 4.86798 6.98745C5.27171 7.78372 6.22296 8.365 8.12544 7.76316L8.59822 9.25213C6.20925 10.0078 4.24014 9.20298 3.47589 7.69528C3.28948 7.32774 3.17563 6.92994 3.13091 6.51977C2.72852 6.99723 2.36524 7.49425 2.04426 8.01133L2.05479 8.01635C1.33475 9.65603 1.31837 10.7918 1.60541 11.5298C1.89263 12.2679 2.49438 12.7368 3.42097 12.9952C5.27397 13.5118 8.27457 12.8885 10.3875 11.3104C11.292 10.635 12.1493 8.99693 12.224 7.72654C12.2612 7.09127 12.1266 6.5894 11.8608 6.26892C11.595 5.94844 11.1693 5.70862 10.2882 5.71773L10.2726 4.15579C11.4836 4.14325 12.4668 4.55317 13.0624 5.2712C13.6579 5.98923 13.8364 6.91389 13.7833 7.81799C13.6772 9.62627 12.7305 11.5103 11.3226 12.5617C8.82533 14.4269 5.52691 15.2036 3.00302 14.4999C1.83378 14.1739 0.798781 13.4646 0.265483 12.3659C-0.532458 16.1647 0.626838 19.6933 2.83317 22.1353C3.12155 22.4546 3.42849 22.7564 3.75014 23.0364C3.51994 22.3771 3.41445 21.6906 3.43919 21.0225C3.48349 19.8251 3.94758 18.6531 4.87859 17.8436C5.6421 17.1794 6.69682 16.7962 7.95827 16.7987C8.04236 16.7987 8.12829 16.8002 8.21422 16.8037C8.41065 16.8121 8.61235 16.8291 8.81773 16.8561L8.61377 18.4051C7.31078 18.2339 6.46511 18.5324 5.90248 19.0216C5.33992 19.5109 5.02956 20.2432 4.99863 21.08C4.93677 22.7538 6.00755 24.7083 8.31628 25.2752L8.3136 25.2909C10.5866 25.7247 13.123 25.322 15.6694 23.7679C15.6709 23.7669 15.673 23.7665 15.6746 23.7654C16.2046 23.3934 16.49 23.0291 16.6307 22.7152C16.7966 22.3448 16.7931 22.0221 16.675 21.6756C16.439 20.9826 15.5934 20.2703 14.8178 20.0717C13.5638 19.7507 12.7672 20.1918 12.3938 20.717C12.0203 21.242 11.9975 21.7577 12.574 22.2058L11.6152 23.4387C10.4293 22.5165 10.3537 20.8903 11.1216 19.8105C11.6977 19.0007 12.7085 18.4458 13.9272 18.4104C13.9785 18.4086 14.0299 18.4077 14.0813 18.4079C14.4413 18.4104 14.8161 18.4599 15.2045 18.5592C16.5006 18.891 17.6988 19.8362 18.1535 21.1713C18.2749 21.5293 18.3281 21.9067 18.3103 22.2842C19.7071 21.5706 21.1801 20.9368 22.6806 20.4608C25.2013 19.309 26.2941 17.2896 26.2515 15.5893C26.2084 13.8763 25.1492 12.4346 22.7093 12.1934L22.8634 10.6391C25.9283 10.9422 27.7502 13.1341 27.8109 15.55C27.8462 16.9576 27.3299 18.4223 26.2906 19.6692C27.634 19.5188 28.9691 19.5443 30.2636 19.8053C30.0001 19.2643 29.8724 18.6786 29.8902 18.0969C29.9468 16.2549 31.5135 14.5365 33.9756 14.5104C34.1438 14.5088 34.312 14.5149 34.4796 14.5286L34.3543 16.0855C32.2706 15.9184 31.4872 17.0121 31.4522 18.1464C31.4178 19.2682 32.1665 20.5239 34.3126 20.6905C36.6782 20.7114 38.3741 19.4285 39.2051 17.522C40.3177 14.9695 39.79 11.1427 36.2925 7.64279C36.2263 7.5765 36.1606 7.50963 36.094 7.44426C36.0573 7.75598 35.9773 8.06106 35.8564 8.3507C35.2504 9.80432 33.8308 10.7855 32.3562 11.0596C30.322 11.4376 28.654 10.6126 27.8841 9.35386C27.1143 8.09526 27.3164 6.31539 28.7016 5.37836L29.5768 6.67399C28.8318 7.17786 28.8011 7.86012 29.2163 8.53886C29.6315 9.21777 30.5679 9.80574 32.0714 9.52638C33.0164 9.35068 34.0688 8.57932 34.4144 7.75012C34.5874 7.33551 34.6208 6.92576 34.4485 6.45699C34.3085 6.07624 34.0149 5.64083 33.4688 5.18226L33.4532 5.1693C31.1699 3.44845 28.7439 2.21083 26.2854 1.39467C26.2869 1.39735 26.2892 1.39969 26.2907 1.40244C26.8494 2.4239 26.8908 3.58262 26.5467 4.60758C25.8585 6.65761 23.6988 8.2728 21.0272 8.18353C20.4464 8.1643 19.8937 8.44432 19.4234 8.99074C18.9531 9.53717 18.6097 10.3376 18.53 11.1902C18.3708 12.8954 19.1087 14.775 21.9859 15.704L21.5048 17.1904C18.0707 16.0817 16.7544 13.3833 16.9726 11.0466C17.0818 9.87846 17.5331 8.79289 18.2395 7.97221C18.946 7.15153 19.951 6.58438 21.0791 6.62175C23.0886 6.68879 24.6168 5.44448 25.0652 4.10881C25.2894 3.4411 25.2604 2.77665 24.9189 2.15241C24.5872 1.54622 23.93 0.946801 22.7534 0.509379C21.3491 0.265482 19.9262 0.144821 18.5008 0.148776ZM26.9615 21.208C23.4578 21.4931 19.6586 23.164 16.4894 25.1001C11.8101 27.9587 6.8859 27.3347 3.39205 24.7424C4.76659 29.6611 9.63715 30.6595 14.7184 29.4154C15.2268 29.2244 15.7264 28.8689 16.1525 28.4098C16.7424 27.774 17.1698 26.9495 17.3044 26.2679L18.8377 26.5709C18.6333 27.6059 18.0789 28.6327 17.2992 29.4731C16.5511 30.2793 15.5764 30.9233 14.4493 31.0925C13.8837 32.3522 13.4183 33.5735 13.2294 34.4282C12.9326 35.7707 14.4169 36.286 15.0814 34.9323C16.6714 31.6938 18.9156 28.8111 21.7189 26.3254C23.8975 24.8916 25.7651 23.1237 26.9616 21.208H26.9615Z" fill="#5F0055"/>
</svg>
