<svg width="38" height="39" viewBox="0 0 38 39" fill="none" xmlns="http://www.w3.org/2000/svg">
<path d="M29.5556 17.3606C30.1889 17.3606 31.0333 17.3606 31.6667 17.5717V7.43835L15.8333 0.47168L0 7.43835V17.7828C0 27.2828 6.75556 36.3606 15.8333 38.4717C17.1 38.2606 18.1556 37.8383 19.2111 37.4161C17.7333 35.305 16.8889 32.7717 16.8889 30.0272C16.8889 23.0606 22.5889 17.3606 29.5556 17.3606ZM29.5556 21.5828C24.9111 21.5828 21.1111 25.3828 21.1111 30.0272C21.1111 34.6717 24.9111 38.4717 29.5556 38.4717C34.2 38.4717 38 34.6717 38 30.0272C38 25.3828 34.2 21.5828 29.5556 21.5828ZM29.5556 24.5383C30.8222 24.5383 31.8778 25.5939 31.8778 26.8606C31.8778 28.1272 30.8222 29.1828 29.5556 29.1828C28.2889 29.1828 27.2333 28.1272 27.2333 26.8606C27.2333 25.5939 28.2889 24.5383 29.5556 24.5383ZM29.5556 35.9383C27.6556 35.9383 25.9667 34.8828 24.9111 33.405C25.1222 31.9272 28.0778 31.0828 29.5556 31.0828C31.0333 31.0828 34.2 31.9272 34.2 33.405C33.1444 34.8828 31.4556 35.9383 29.5556 35.9383Z" fill="#6604C8"/>
</svg>
