<svg width="207" height="163" viewBox="0 0 207 163" fill="none" xmlns="http://www.w3.org/2000/svg">
<path fill-rule="evenodd" clip-rule="evenodd" d="M29.6623 162.205C41.0809 160.58 54.6626 153.17 60.2102 145.536C61.6521 143.553 69.5562 141.368 79.8004 140.118C104.766 137.072 126.395 125.775 145.958 105.564C165.84 85.0204 175.681 68.1509 183.79 40.7075C187.276 28.9116 190.851 19.5008 191.736 19.7955C192.619 20.0897 194.847 21.9214 196.685 23.8662C199.405 26.741 200.705 26.9162 203.677 24.8018C205.683 23.3742 207.131 21.3782 206.893 20.366C206.289 17.8136 188.732 1.59961 185.348 0.472743C182.102 -0.608428 162.283 19.5562 163.116 23.0924C164.142 27.4404 171.214 28.1579 174.423 24.2399C184.942 11.3942 166.538 63.8636 154.677 80.5352C142.855 97.1514 127.914 110.811 112.186 119.381C98.1153 127.048 79.6157 132.918 74.6899 131.277C73.4339 130.859 74.2274 125.756 76.7056 118.315C86.2996 89.5066 67.7508 61.3597 39.1268 61.2932C18.2831 61.2449 2.79418 85.5083 9.55745 107.622C12.9896 118.852 27.2739 131.164 42.9148 136.373C58.3394 141.51 58.6343 142.72 46.5785 151.382C35.9007 159.053 23.8978 161.755 10.8344 159.43L0.3084 157.555L9.02808 160.728C14.9812 162.893 21.5251 163.362 29.6623 162.205ZM59.5605 131.12C64.7609 130.898 66.8695 128.318 70.2937 117.991C76.8739 98.1422 70.0877 80.5136 52.937 72.9082C36.1124 65.4458 23.7008 70.123 18.444 85.9075C12.4269 103.975 22.8271 120.596 44.4689 127.491C50.9721 129.565 57.764 131.197 59.5605 131.12ZM31.191 106.923C25.1635 96.2466 25.3572 85.8347 31.7197 78.6486L35.647 74.2111L30.2299 77.4818C20.1648 83.5574 19.5558 98.1686 28.9008 109.371C36.5132 118.499 37.2701 117.689 31.191 106.923ZM130.659 101.075C134.666 98.0091 140.558 91.9905 143.751 87.7017C149.674 79.746 161.759 56.7113 160.952 54.9121C160.44 53.7679 160.461 53.7363 147.529 74.4664C142.165 83.064 134.168 93.7015 129.757 98.1026C120.231 107.608 120.586 108.779 130.659 101.075Z" fill="#E6E8EC"/>
</svg>
