<svg width="16" height="16" viewBox="0 0 16 16" fill="none" xmlns="http://www.w3.org/2000/svg">
<path d="M3.28613 12.7142C4.21848 13.6465 5.40636 14.2815 6.69957 14.5387C7.99278 14.796 9.33324 14.664 10.5514 14.1594C11.7696 13.6548 12.8108 12.8003 13.5433 11.704C14.2759 10.6077 14.6669 9.31871 14.6669 8.00017C14.6669 6.68162 14.2759 5.39268 13.5433 4.29635C12.8108 3.20002 11.7696 2.34554 10.5514 1.84096C9.33324 1.33638 7.99278 1.20436 6.69957 1.46161C5.40636 1.71885 4.21848 2.3538 3.28613 3.28617" stroke="white" stroke-width="1.33333"/>
<path d="M9.99967 8L10.5197 7.58333L10.853 8L10.5197 8.41667L9.99967 8ZM1.99967 8.66667C1.82286 8.66667 1.65329 8.59643 1.52827 8.4714C1.40325 8.34638 1.33301 8.17681 1.33301 8C1.33301 7.82319 1.40325 7.65362 1.52827 7.5286C1.65329 7.40357 1.82286 7.33333 1.99967 7.33333V8.66667ZM7.85301 4.25L10.5197 7.58333L9.47968 8.41667L6.81301 5.08333L7.85301 4.25ZM10.5197 8.41667L7.85301 11.75L6.81301 10.9167L9.47968 7.58333L10.5197 8.41667ZM9.99967 8.66667H1.99967V7.33333H9.99967V8.66667Z" fill="white"/>
</svg>
