<svg width="242" height="100" viewBox="0 0 242 100" fill="none" xmlns="http://www.w3.org/2000/svg">
<path fill-rule="evenodd" clip-rule="evenodd" d="M215.719 98.6803C204.44 101.093 189.136 98.8194 181.297 93.5667C179.26 92.2024 171.087 92.8771 161.04 95.2356C136.555 100.985 112.357 97.8388 87.0254 85.6119C61.2784 73.1843 46.2245 60.7425 29.1501 37.7782C21.8104 27.9077 15.2105 20.3064 14.4814 20.8883C13.7538 21.4689 12.2941 23.9565 11.2392 26.4159C9.67724 30.0522 8.51687 30.6651 4.99894 29.7049C2.62363 29.0565 0.575936 27.6823 0.450546 26.65C0.136773 24.0461 11.0268 2.77253 13.8144 0.54807C16.489 -1.58619 42.0456 10.508 42.4822 14.1149C43.0192 18.5497 36.6276 21.662 32.2644 19.0907C17.9616 10.6596 53.3283 53.5657 70.2108 65.125C87.0366 76.646 105.772 84.3162 123.49 86.9376C139.342 89.2828 158.731 88.4136 162.789 85.1753C163.824 84.3496 161.319 79.8332 156.427 73.7026C137.488 49.9692 145.194 17.1527 172.04 7.22064C191.589 -0.0117701 214.494 17.423 215.77 40.5122C216.421 52.2373 207.258 68.72 194.372 79.0026C181.665 89.1429 181.805 90.3799 196.108 94.3543C208.776 97.8726 220.975 96.2707 232.435 89.5833L241.67 84.1947L234.579 90.1794C229.737 94.2645 223.756 96.9606 215.719 98.6803ZM176.936 79.8111C171.978 81.3958 169.109 79.7011 162.334 71.1882C149.313 54.8253 149.605 35.9378 163.082 22.8852C176.301 10.0792 189.564 10.1899 199.941 23.1939C211.819 38.0789 207.788 57.266 189.851 71.2011C184.461 75.3897 178.649 79.2635 176.936 79.8111ZM195.222 47.3156C197.199 35.2159 193.427 25.5093 184.977 20.9577L179.761 18.1464L185.973 19.3488C197.516 21.5812 203.126 35.0864 198.216 48.8243C194.218 60.0169 193.228 59.5178 195.222 47.3156ZM99.8384 76.1231C95.0201 74.6273 87.414 71.0094 82.9381 68.0845C74.6349 62.6591 55.3485 45.2039 55.4856 43.2369C55.5717 41.9863 55.5408 41.964 74.8275 56.9638C82.8272 63.1845 94.0017 70.4122 99.6598 73.0225C111.879 78.6599 111.95 79.8817 99.8384 76.1231Z" fill="#E6E8EC"/>
</svg>
