<svg width="24" height="24" viewBox="0 0 24 24" fill="none" xmlns="http://www.w3.org/2000/svg">
<path d="M4.99295 11.016C4.77572 11.0162 4.56433 10.9457 4.39075 10.8151C4.21716 10.6845 4.09082 10.5009 4.03083 10.2922C3.97084 10.0834 3.98047 9.86074 4.05825 9.65792C4.13603 9.4551 4.27774 9.28312 4.46195 9.16799L7.14995 6.47999C7.33759 6.29248 7.59203 6.18719 7.8573 6.18729C8.12257 6.18738 8.37694 6.29285 8.56445 6.48049C8.75196 6.66813 8.85724 6.92257 8.85715 7.18784C8.85706 7.45311 8.75159 7.70748 8.56395 7.89499L7.44295 9.01499H14.9929C15.2582 9.01499 15.5125 9.12035 15.7001 9.30788C15.8876 9.49542 15.9929 9.74977 15.9929 10.015C15.9929 10.2802 15.8876 10.5346 15.7001 10.7221C15.5125 10.9096 15.2582 11.015 14.9929 11.015L4.99295 11.016ZM19.0069 12.984C19.2242 12.9838 19.4356 13.0543 19.6091 13.1849C19.7827 13.3155 19.9091 13.499 19.9691 13.7078C20.0291 13.9166 20.0194 14.1392 19.9416 14.3421C19.8639 14.5449 19.7222 14.7169 19.5379 14.832L16.8499 17.52C16.757 17.6128 16.6468 17.6865 16.5254 17.7367C16.404 17.7869 16.2739 17.8127 16.1426 17.8127C16.0112 17.8126 15.8812 17.7867 15.7599 17.7364C15.6385 17.6861 15.5283 17.6124 15.4354 17.5195C15.3426 17.4266 15.269 17.3163 15.2187 17.1949C15.1685 17.0736 15.1427 16.9435 15.1427 16.8121C15.1428 16.6808 15.1687 16.5507 15.219 16.4294C15.2693 16.3081 15.343 16.1978 15.4359 16.105L16.5569 14.985H9.00695C8.74173 14.985 8.48738 14.8796 8.29984 14.6921C8.11231 14.5046 8.00695 14.2502 8.00695 13.985C8.00695 13.7198 8.11231 13.4654 8.29984 13.2779C8.48738 13.0903 8.74173 12.985 9.00695 12.985L19.0069 12.984Z" fill="#011E3E"/>
</svg>
