<svg width="104" height="104" viewBox="0 0 104 104" fill="none" xmlns="http://www.w3.org/2000/svg">
<g clipPath="url(#clip0_3808_7283)">
<path d="M52 0C38.2119 0 24.9762 5.48194 15.2344 15.2303C5.48245 24.9826 0.00270132 38.2085 0 52C0 65.7857 5.48438 79.0213 15.2344 88.7697C24.9762 98.5181 38.2119 104 52 104C65.7881 104 79.0238 98.5181 88.7656 88.7697C98.5156 79.0213 104 65.7857 104 52C104 38.2143 98.5156 24.9787 88.7656 15.2303C79.0238 5.48194 65.7881 0 52 0Z" fill="url(#paint0_linear_3808_7283)"/>
<path d="M34.7494 49.2199C45.4888 43.5755 52.6485 39.854 56.2283 38.0561C66.4612 32.9221 68.585 32.0305 69.972 32.0003C70.277 31.9944 70.9562 32.0853 71.3993 32.5176C71.7677 32.8822 71.8713 33.3753 71.923 33.7214C71.9691 34.0673 72.0324 34.8555 71.9806 35.4707C71.4281 42.4985 69.0281 59.5525 67.808 67.424C67.2958 70.7545 66.2771 71.8712 65.2929 71.9802C63.1519 72.2177 61.5289 70.2746 59.457 68.6364C56.2168 66.0719 54.3866 64.4761 51.2384 61.974C47.601 59.0824 49.9607 57.4928 52.0326 54.8956C52.5736 54.2157 62.0009 43.8721 62.1793 42.9339C62.2023 42.8165 62.2253 42.379 62.0066 42.1485C61.7937 41.9172 61.4771 41.9964 61.2469 42.0589C60.9189 42.1478 55.7448 46.2783 45.7075 54.4498C44.2399 55.6678 42.9104 56.2615 41.7133 56.2303C40.4011 56.1963 37.8688 55.3331 35.9868 54.5956C33.6847 53.6907 31.8487 53.2123 32.0099 51.6755C32.0904 50.8755 33.0055 50.0567 34.7494 49.2199Z" fill="white"/>
</g>
<defs>
<linearGradient id="paint0_linear_3808_7283" x1="5200" y1="0" x2="5200" y2="10400" gradientUnits="userSpaceOnUse">
<stop stop-color="#2AABEE"/>
<stop offset="1" stop-color="#229ED9"/>
</linearGradient>
<clipPath id="clip0_3808_7283">
<rect width="104" height="104" fill="white"/>
</clipPath>
</defs>
</svg>
