<svg width="57" height="23" viewBox="0 0 57 23" fill="none" xmlns="http://www.w3.org/2000/svg">
<g clip-path="url(#clip0_2350_3342)">
<path d="M26.0977 19.5769H27.5459V14.114H26.0977V19.5769ZM26.0977 13.262H27.5459V11.9629H26.0977V13.262Z" fill="black"/>
<path d="M28.4805 21.3658H29.9287V18.9592H29.9501C30.2588 19.4277 30.7594 19.7366 31.5261 19.7366C32.9317 19.7366 33.8901 18.6184 33.8901 16.8507C33.8901 15.1468 32.9637 13.9648 31.5154 13.9648C30.77 13.9648 30.2588 14.3163 29.9074 14.7954H29.8755V14.1139H28.4805V21.3658ZM31.2173 18.5332C30.3547 18.5332 29.8968 17.8837 29.8968 16.8933C29.8968 15.9136 30.2588 15.1362 31.164 15.1362C32.0585 15.1362 32.4206 15.8603 32.4206 16.8933C32.4206 17.9262 31.9521 18.5332 31.2173 18.5332Z" fill="black"/>
<path d="M36.7784 19.7366C38.1415 19.7366 39.0786 19.0763 39.0786 17.9795C39.0786 16.7016 38.067 16.4461 37.1512 16.2544C36.3737 16.0946 35.6496 16.052 35.6496 15.5835C35.6496 15.1895 36.0223 14.9765 36.5868 14.9765C37.2044 14.9765 37.5771 15.1895 37.641 15.7752H38.9508C38.8443 14.6783 38.0457 13.9648 36.6081 13.9648C35.3621 13.9648 34.3824 14.5292 34.3824 15.7112C34.3824 16.9039 35.3408 17.1702 36.3205 17.3619C37.0659 17.5109 37.7581 17.5642 37.7581 18.086C37.7581 18.4693 37.3961 18.7142 36.7571 18.7142C36.1075 18.7142 35.6603 18.4374 35.5644 17.8091H34.2227C34.3079 18.9699 35.1917 19.7366 36.7784 19.7366Z" fill="black"/>
<path d="M44.5793 19.5762V14.1133H43.131V17.2653C43.131 17.9895 42.7157 18.5006 42.0342 18.5006C41.4166 18.5006 41.129 18.1492 41.129 17.5102V14.1133H39.6914V17.7552C39.6914 18.9478 40.373 19.7253 41.5869 19.7253C42.3537 19.7253 42.7796 19.4377 43.1523 18.9372H43.1843V19.5762H44.5793Z" fill="black"/>
<path d="M45.5117 19.5768H46.96V16.4034C46.96 15.6793 47.354 15.2108 47.9397 15.2108C48.4721 15.2108 48.781 15.5302 48.781 16.1479V19.5768H50.2292V16.4034C50.2292 15.6793 50.6019 15.2108 51.2089 15.2108C51.7414 15.2108 52.0502 15.5302 52.0502 16.1479V19.5768H53.4984V15.903C53.4984 14.7103 52.8488 13.9648 51.6988 13.9648C51.0066 13.9648 50.4316 14.3269 50.0589 14.9232H50.0376C49.7713 14.3482 49.2176 13.9648 48.5254 13.9648C47.7693 13.9648 47.2369 14.3482 46.9387 14.8487H46.9067V14.1139H45.5117V19.5768Z" fill="black"/>
<path d="M26.1211 10.2194H27.5693V2.60547H26.1211V10.2194Z" fill="black"/>
<path d="M31.1078 10.3791C32.801 10.3791 33.9617 9.12256 33.9617 7.49327C33.9617 5.86399 32.801 4.60742 31.1078 4.60742C29.4147 4.60742 28.2539 5.86399 28.2539 7.49327C28.2539 9.12256 29.4147 10.3791 31.1078 10.3791ZM31.1078 9.27165C30.2133 9.27165 29.7235 8.55817 29.7235 7.49327C29.7235 6.42838 30.2133 5.70426 31.1078 5.70426C31.9917 5.70426 32.4922 6.42838 32.4922 7.49327C32.4922 8.55817 31.9917 9.27165 31.1078 9.27165Z" fill="black"/>
<path d="M37.044 12.083C37.8533 12.083 38.5562 11.8913 39.014 11.4653C39.4187 11.0926 39.6636 10.5708 39.6636 9.8041V4.75651H38.2686V5.33155H38.2473C37.9172 4.87364 37.4167 4.60742 36.7352 4.60742C35.3508 4.60742 34.3711 5.65102 34.3711 7.28031C34.3711 8.93088 35.5638 9.88927 36.7778 9.88927C37.47 9.88927 37.8853 9.61242 38.2047 9.25036H38.2367V9.84668C38.2367 10.5921 37.8427 10.9861 37.0227 10.9861C36.3518 10.9861 36.043 10.7199 35.9259 10.3791H34.4883C34.6373 11.444 35.5531 12.083 37.044 12.083ZM37.0227 8.72856C36.2773 8.72856 35.7874 8.18546 35.7874 7.25901C35.7874 6.34321 36.2773 5.76815 37.012 5.76815C37.8853 5.76815 38.3112 6.44967 38.3112 7.24837C38.3112 8.05766 37.9385 8.72856 37.0227 8.72856Z" fill="black"/>
<path d="M43.182 10.3791C44.8752 10.3791 46.036 9.12256 46.036 7.49327C46.036 5.86399 44.8752 4.60742 43.182 4.60742C41.4889 4.60742 40.3281 5.86399 40.3281 7.49327C40.3281 9.12256 41.4889 10.3791 43.182 10.3791ZM43.182 9.27165C42.2875 9.27165 41.7977 8.55817 41.7977 7.49327C41.7977 6.42838 42.2875 5.70426 43.182 5.70426C44.0659 5.70426 44.5664 6.42838 44.5664 7.49327C44.5664 8.55817 44.0659 9.27165 43.182 9.27165Z" fill="black"/>
<path d="M47.3086 8.13265H53.5701V6.88672H47.3086V8.13265Z" fill="black"/>
<path d="M54.0273 13.1859C54.0273 12.9409 54.226 12.7422 54.4712 12.7422H55.3583C55.6036 12.7422 55.8022 12.9409 55.8022 13.1859C55.8022 13.4309 55.6036 13.6296 55.3583 13.6296H54.4712C54.226 13.6296 54.0273 13.4309 54.0273 13.1859Z" fill="black"/>
<path fill-rule="evenodd" clip-rule="evenodd" d="M11.4756 0.912109C17.3259 0.912109 22.0685 5.65468 22.0685 11.5049C22.0685 17.3552 17.3259 22.0978 11.4756 22.0978C5.62538 22.0978 0.882812 17.3552 0.882812 11.5049C0.882812 5.65468 5.62538 0.912109 11.4756 0.912109ZM11.0928 1.70477C9.88433 1.87483 8.73363 2.84587 7.84039 4.46992C7.58129 4.941 7.34751 5.46144 7.14375 6.02338C8.35833 5.71817 9.69255 5.53822 11.0928 5.51039V1.70477ZM6.2485 6.2778C6.50183 5.48269 6.81178 4.75116 7.16944 4.1009C7.61222 3.29581 8.13773 2.60058 8.72982 2.06661C5.51018 3.00167 2.97237 5.53948 2.03731 8.75912C2.57128 8.16703 3.26651 7.64152 4.0716 7.19874C4.72187 6.84108 5.45339 6.53113 6.2485 6.2778ZM5.99406 7.17305C5.68887 8.38763 5.50893 9.72185 5.48109 11.1221H1.67547C1.84554 9.91358 2.81658 8.76288 4.44063 7.86969C4.91171 7.61059 5.43215 7.37681 5.99406 7.17305ZM6.24702 11.1221C6.27864 9.59399 6.4986 8.15941 6.86257 6.89187C8.13011 6.5279 9.56475 6.30789 11.0928 6.27627V7.93028C10.5227 9.38966 9.36004 10.5522 7.90061 11.1221H6.24702ZM5.48109 11.8878H1.67547C1.84554 13.0963 2.81658 14.2469 4.44063 15.1402C4.91171 15.3993 5.43215 15.6331 5.99406 15.8368C5.68887 14.6223 5.50893 13.288 5.48109 11.8878ZM6.86257 16.118C6.4986 14.8505 6.27864 13.4159 6.24702 11.8878H7.90061C9.36004 12.4577 10.5228 13.6202 11.0928 15.0796V16.7336C9.56475 16.702 8.13011 16.482 6.86257 16.118ZM6.2485 16.7321C5.45339 16.4788 4.72187 16.1688 4.0716 15.8111C3.26651 15.3684 2.57128 14.8428 2.03731 14.2508C2.97237 17.4704 5.51018 20.0082 8.72982 20.9433C8.13773 20.4093 7.61222 19.7141 7.16944 18.909C6.81178 18.2587 6.50183 17.5272 6.2485 16.7321ZM11.0928 21.3051C9.88433 21.135 8.73363 20.164 7.84039 18.54C7.58129 18.0689 7.34751 17.5484 7.14375 16.9865C8.35833 17.2917 9.69255 17.4717 11.0928 17.4995V21.3051ZM14.2215 20.9433C14.8135 20.4093 15.3391 19.7141 15.7819 18.909C16.1395 18.2587 16.4494 17.5272 16.7028 16.7321C17.4979 16.4788 18.2294 16.1688 18.8797 15.8111C19.6848 15.3684 20.38 14.8428 20.914 14.2508C19.9789 17.4704 17.4411 20.0082 14.2215 20.9433ZM15.8075 16.9865C15.6038 17.5484 15.37 18.0689 15.1109 18.54C14.2177 20.164 13.067 21.135 11.8585 21.3051V17.4995C13.2587 17.4717 14.593 17.2917 15.8075 16.9865ZM16.9572 15.8368C17.5191 15.6331 18.0396 15.3993 18.5107 15.1402C20.1347 14.2469 21.1057 13.0963 21.2758 11.8878H17.4702C17.4424 13.288 17.2624 14.6223 16.9572 15.8368ZM16.7043 11.8878C16.6727 13.4159 16.4527 14.8505 16.0887 16.118C14.8212 16.482 13.3866 16.702 11.8585 16.7336V15.0808C12.4284 13.6209 13.5913 12.4578 15.0511 11.8878H16.7043ZM17.4702 11.1221H21.2758C21.1057 9.91358 20.1347 8.76288 18.5107 7.86969C18.0396 7.61059 17.5191 7.37681 16.9572 7.17305C17.2624 8.38763 17.4424 9.72185 17.4702 11.1221ZM16.0887 6.89187C16.4527 8.15941 16.6727 9.59399 16.7043 11.1221H15.0511C13.5913 10.5521 12.4284 9.38897 11.8585 7.92906V6.27627C13.3866 6.30789 14.8212 6.5279 16.0887 6.89187ZM16.7028 6.2778C17.4979 6.53113 18.2294 6.84108 18.8797 7.19874C19.6848 7.64152 20.38 8.16703 20.914 8.75912C19.9789 5.53948 17.4411 3.00167 14.2215 2.06661C14.8135 2.60058 15.3391 3.29581 15.7819 4.1009C16.1395 4.75116 16.4494 5.48269 16.7028 6.2778ZM11.8585 1.70477C13.067 1.87483 14.2177 2.84587 15.1109 4.46992C15.37 4.94101 15.6038 5.46144 15.8075 6.02338C14.593 5.71817 13.2587 5.53822 11.8585 5.51039V1.70477Z" fill="black"/>
</g>
<defs>
<clipPath id="clip0_2350_3342">
<rect width="55.6124" height="21.1857" fill="white" transform="translate(0.605469 0.912109)"/>
</clipPath>
</defs>
</svg>
