<svg width="39" height="23" viewBox="0 0 39 23" fill="none" xmlns="http://www.w3.org/2000/svg">
<g clip-path="url(#clip0_2350_3355)">
<path d="M38.35 8.4469C38.354 8.41745 38.354 8.38768 38.35 8.35823C38.3537 8.33424 38.3537 8.30977 38.35 8.28573L38.0675 6.21472C38.0267 5.96695 37.9177 5.73537 37.7528 5.54588L37.7043 5.48947L37.6156 5.40082L32.725 1.19436L32.8621 1.33136C32.7499 1.19726 32.609 1.09001 32.4498 1.01749C32.2906 0.944969 32.1171 0.909029 31.9422 0.91232H30.4572C30.2157 0.907543 29.9798 0.984201 29.7874 1.1299C29.5853 0.985079 29.342 0.908812 29.0933 0.91232H27.6084C27.4136 0.909165 27.2215 0.957428 27.0515 1.05224C26.8814 1.14705 26.7394 1.28503 26.64 1.45223C26.4866 1.69103 26.429 1.97874 26.4785 2.25807L26.6642 3.56352C26.5412 3.49391 26.402 3.45779 26.2606 3.45877H19.07C18.812 3.46038 18.56 3.53589 18.3437 3.67633C18.1345 3.80706 17.9666 3.99425 17.8595 4.21624L17.3026 3.7408C17.0834 3.53832 16.7941 3.42856 16.4956 3.43459H5.21331C4.95441 3.4393 4.70126 3.51152 4.47894 3.64411C4.17479 3.82186 3.95189 4.1109 3.85751 4.44994L0.274299 16.4166C0.207348 16.6138 0.200762 16.8265 0.255384 17.0274C0.310006 17.2283 0.423363 17.4085 0.580973 17.5448C0.622042 17.5796 0.665164 17.6119 0.710101 17.6415C0.710101 17.6415 0.637457 17.5931 0.597105 17.5529L5.48772 21.7674C5.69461 21.9576 5.9651 22.0639 6.24628 22.0655H17.6174C17.8771 22.0588 18.1304 21.9837 18.3518 21.8479C18.477 21.7796 18.589 21.6896 18.6826 21.582L18.723 21.5256L18.7876 21.445L18.836 21.3564L19.3686 21.8157C19.5725 21.9984 19.8372 22.0988 20.1111 22.0978H31.5063C31.7657 22.0891 32.0186 22.0142 32.2407 21.8802C32.3631 21.8077 32.4745 21.7181 32.5716 21.6143L32.6119 21.5579L32.6765 21.4773C32.7108 21.4263 32.7406 21.3724 32.7653 21.3161C32.7917 21.2672 32.8133 21.216 32.8298 21.163L36.0983 10.2359V10.1392C36.1023 10.1017 36.1023 10.0638 36.0983 10.0263V9.95383C36.1022 9.92979 36.1022 9.90532 36.0983 9.88127C36.102 9.83032 36.102 9.77916 36.0983 9.72815H37.1475C37.2387 9.73652 37.3306 9.73652 37.4218 9.72815H37.4945C37.5536 9.71057 37.6104 9.6862 37.664 9.65564H37.7447L37.8899 9.54283L37.9545 9.49447L38.0675 9.3494V9.3011L38.1482 9.16408C38.1437 9.13744 38.1437 9.11017 38.1482 9.08352C38.1439 9.07044 38.1439 9.0563 38.1482 9.04322C38.1653 8.99597 38.1788 8.94746 38.1885 8.89815C38.1848 8.88226 38.1848 8.86568 38.1885 8.84979C38.1846 8.8258 38.1846 8.80128 38.1885 8.77729C38.1885 8.77729 38.35 8.463 38.35 8.4469Z" fill="black"/>
<path d="M16.827 4.35413C16.8698 4.39281 16.8997 4.44368 16.9127 4.49988C16.9257 4.55607 16.9211 4.61489 16.8996 4.6684L13.3245 16.627C13.2795 16.7576 13.1874 16.8667 13.0662 16.9333C12.9677 16.9991 12.8536 17.038 12.7353 17.0461H1.37237C1.27533 17.0414 1.18339 17.0013 1.11411 16.9333C1.0729 16.8952 1.04398 16.8457 1.03104 16.7912C1.0181 16.7367 1.02174 16.6795 1.04148 16.627L4.62469 4.6684C4.66598 4.53619 4.75519 4.42412 4.87487 4.35413C4.97506 4.29302 5.0886 4.25707 5.20575 4.24937H16.5687C16.665 4.25029 16.7573 4.28775 16.827 4.35413ZM10.8953 14.2176L13.0339 7.07785H7.0458L4.91521 14.2176H10.8953ZM27.6734 4.475C27.7122 4.51999 27.7607 4.55566 27.8152 4.57938C27.8697 4.6031 27.9288 4.61425 27.9882 4.61199H29.465C29.5213 4.61254 29.5767 4.59877 29.6262 4.57198C29.6756 4.54519 29.7173 4.50626 29.7475 4.45888C29.7737 4.42187 29.7923 4.37997 29.8019 4.33567C29.8116 4.29138 29.8123 4.24559 29.804 4.20102L29.5135 2.07361C29.4858 1.97515 29.4361 1.88423 29.3682 1.80768C29.3294 1.76269 29.281 1.72702 29.2265 1.7033C29.172 1.67958 29.1128 1.66844 29.0535 1.67069H27.5766C27.5204 1.67014 27.4649 1.68391 27.4155 1.7107C27.3661 1.73749 27.3243 1.77642 27.2942 1.8238C27.2376 1.93662 27.2134 2.00914 27.2376 2.07361L27.5362 4.20102C27.5516 4.30461 27.5996 4.40059 27.6734 4.475ZM32.3623 2.05749C32.3346 1.95903 32.2849 1.86811 32.217 1.79156C32.1799 1.74674 32.1328 1.71107 32.0797 1.68731C32.0265 1.66356 31.9686 1.65235 31.9103 1.65457H30.4254C30.3701 1.653 30.3154 1.6664 30.2671 1.69335C30.2188 1.72031 30.1787 1.75982 30.151 1.80768C30.0973 1.87917 30.0741 1.96897 30.0865 2.05749L30.385 4.1849C30.4038 4.28739 30.4513 4.38243 30.5223 4.45888C30.5617 4.50299 30.6103 4.53807 30.6646 4.56171C30.719 4.58535 30.7777 4.59701 30.837 4.59587H32.3219C32.3771 4.5966 32.4315 4.58284 32.4796 4.55597C32.5278 4.5291 32.5681 4.49007 32.5963 4.44277C32.6244 4.40672 32.644 4.36483 32.6538 4.32022C32.6636 4.2756 32.6632 4.22937 32.6528 4.1849L32.3623 2.05749ZM26.3741 5.28084L26.2288 4.23325H19.0705C18.9581 4.23944 18.8494 4.27561 18.7557 4.33801C18.6963 4.37037 18.6446 4.41523 18.6042 4.46949C18.5638 4.52375 18.5357 4.58611 18.5218 4.65229L17.9245 6.65074C17.9007 6.70069 17.8925 6.75673 17.9012 6.81139C17.9099 6.86604 17.9349 6.91678 17.9729 6.95698C18.041 7.02086 18.1298 7.05809 18.2231 7.06175H26.9229L24.7843 14.2015H16.1087C15.9968 14.204 15.8879 14.2375 15.794 14.2981C15.6799 14.3705 15.5965 14.4824 15.5599 14.6124L14.9547 16.6109C14.9349 16.6622 14.9297 16.7179 14.9397 16.7719C14.9497 16.826 14.9744 16.8762 15.0111 16.9171C15.0771 16.9853 15.1666 17.0256 15.2613 17.0299H26.6566C26.7744 17.0198 26.888 16.9811 26.9874 16.9171C27.1066 16.8503 27.196 16.7409 27.2376 16.6109L30.5142 5.68376H26.8261C26.7675 5.68491 26.7094 5.67406 26.6553 5.65188C26.6012 5.62971 26.5522 5.59666 26.5113 5.55482C26.4446 5.48174 26.3974 5.39306 26.3741 5.29695V5.28084Z" fill="white"/>
</g>
<defs>
<clipPath id="clip0_2350_3355">
<rect width="38.1342" height="21.1857" fill="white" transform="translate(0.21875 0.912109)"/>
</clipPath>
</defs>
</svg>
