<svg width="169" height="42" viewBox="0 0 169 42" fill="none" xmlns="http://www.w3.org/2000/svg">
<g clip-path="url(#clip0_1535_6549)">
<path d="M50.8594 29.3534H62.8114V25.7534H55.1074V12.1934H50.8594V29.3534Z" fill="#1A1414"/>
<path d="M69.8938 26.9525C68.1898 26.9525 67.3018 25.4645 67.3018 23.2325C67.3018 21.0005 68.1898 19.4885 69.8938 19.4885C71.5978 19.4885 72.5098 21.0005 72.5098 23.2325C72.5098 25.4645 71.5978 26.9525 69.8938 26.9525ZM69.9178 29.7365C73.8778 29.7365 76.4698 26.9285 76.4698 23.2325C76.4698 19.5365 73.8778 16.7285 69.9178 16.7285C65.9818 16.7285 63.3418 19.5365 63.3418 23.2325C63.3418 26.9285 65.9818 29.7365 69.9178 29.7365Z" fill="#1A1414"/>
<path d="M83.3245 33.6011C85.1485 33.6011 86.7565 33.1931 87.8365 32.2331C88.8205 31.3451 89.4685 30.0011 89.4685 28.1531V17.0651H85.7245V18.3851H85.6765C84.9565 17.3531 83.8526 16.7051 82.2206 16.7051C79.1726 16.7051 77.0605 19.2491 77.0605 22.8491C77.0605 26.6171 79.6285 28.6811 82.3885 28.6811C83.8765 28.6811 84.8125 28.0811 85.5325 27.2651H85.6285V28.4891C85.6285 29.9771 84.9326 30.8411 83.2766 30.8411C81.9806 30.8411 81.3325 30.2891 81.1165 29.6411H77.3245C77.7085 32.2091 79.9405 33.6011 83.3245 33.6011ZM83.3005 25.7771C81.8365 25.7771 80.8765 24.5771 80.8765 22.7291C80.8765 20.8571 81.8365 19.6571 83.3005 19.6571C84.9325 19.6571 85.7965 21.0491 85.7965 22.7051C85.7965 24.4331 85.0045 25.7771 83.3005 25.7771Z" fill="#1A1414"/>
<path d="M97.1653 26.9525C95.4613 26.9525 94.5733 25.4645 94.5733 23.2325C94.5733 21.0005 95.4613 19.4885 97.1653 19.4885C98.8693 19.4885 99.7813 21.0005 99.7813 23.2325C99.7813 25.4645 98.8693 26.9525 97.1653 26.9525ZM97.1893 29.7365C101.149 29.7365 103.741 26.9285 103.741 23.2325C103.741 19.5365 101.149 16.7285 97.1893 16.7285C93.2533 16.7285 90.6133 19.5365 90.6133 23.2325C90.6133 26.9285 93.2533 29.7365 97.1893 29.7365Z" fill="#1A1414"/>
<path d="M104.885 29.3534H108.797V17.0654H104.885V29.3534ZM104.885 15.3614H108.797V12.1934H104.885V15.3614Z" fill="#1A1414"/>
<path d="M110.494 33.4091H114.406V28.0811H114.454C115.222 29.1131 116.35 29.7371 117.934 29.7371C121.15 29.7371 123.286 27.1931 123.286 23.2091C123.286 19.5131 121.294 16.7051 118.03 16.7051C116.35 16.7051 115.15 17.4491 114.31 18.5531H114.238V17.0651H110.494V33.4091ZM116.926 26.7131C115.246 26.7131 114.286 25.3451 114.286 23.3531C114.286 21.3611 115.15 19.8491 116.854 19.8491C118.534 19.8491 119.326 21.2411 119.326 23.3531C119.326 25.4411 118.414 26.7131 116.926 26.7131Z" fill="#1A1414"/>
<path d="M129.656 29.7371C132.872 29.7371 135.248 28.3451 135.248 25.6571C135.248 22.5131 132.704 21.9611 130.544 21.6011C128.984 21.3131 127.592 21.1931 127.592 20.3291C127.592 19.5611 128.336 19.2011 129.296 19.2011C130.376 19.2011 131.12 19.5371 131.264 20.6411H134.864C134.672 18.2171 132.8 16.7051 129.32 16.7051C126.416 16.7051 124.016 18.0491 124.016 20.6411C124.016 23.5211 126.296 24.0971 128.432 24.4571C130.064 24.7451 131.552 24.8651 131.552 25.9691C131.552 26.7611 130.808 27.1931 129.632 27.1931C128.336 27.1931 127.52 26.5931 127.376 25.3691H123.68C123.8 28.0811 126.056 29.7371 129.656 29.7371Z" fill="#1A1414"/>
<path d="M140.56 29.7125C142.264 29.7125 143.344 29.0405 144.232 27.8405H144.304V29.3525H148.048V17.0645H144.136V23.9285C144.136 25.3925 143.32 26.4005 141.976 26.4005C140.728 26.4005 140.128 25.6565 140.128 24.3125V17.0645H136.24V25.1285C136.24 27.8645 137.728 29.7125 140.56 29.7125Z" fill="#1A1414"/>
<path d="M149.75 29.3531H153.662V22.4651C153.662 21.0011 154.382 19.9691 155.606 19.9691C156.782 19.9691 157.334 20.7371 157.334 22.0571V29.3531H161.246V22.4651C161.246 21.0011 161.942 19.9691 163.19 19.9691C164.366 19.9691 164.918 20.7371 164.918 22.0571V29.3531H168.83V21.3611C168.83 18.6011 167.438 16.7051 164.654 16.7051C163.07 16.7051 161.75 17.3771 160.79 18.8651H160.742C160.118 17.5451 158.894 16.7051 157.286 16.7051C155.51 16.7051 154.334 17.5451 153.566 18.8171H153.494V17.0651H149.75V29.3531Z" fill="#1A1414"/>
<path fill-rule="evenodd" clip-rule="evenodd" d="M20.6843 0.962891C31.9461 0.962891 41.0756 10.0924 41.0756 21.3542C41.0756 32.6161 31.9461 41.7456 20.6843 41.7456C9.42246 41.7456 0.292969 32.6161 0.292969 21.3542C0.292969 10.0924 9.42246 0.962891 20.6843 0.962891ZM40.2929 21.3542C40.2929 10.5247 31.5138 1.74551 20.6843 1.74551C19.8107 1.74551 18.9506 1.80263 18.1072 1.91334C18.6521 1.8657 19.2035 1.84138 19.7607 1.84138C30.1089 1.84138 38.4978 10.2303 38.4978 20.5785C38.4978 30.9266 30.1089 39.3155 19.7607 39.3155C9.96378 39.3155 1.92296 31.7966 1.09413 22.2145C1.54438 32.6449 10.1429 40.9629 20.6843 40.9629C31.5138 40.9629 40.2929 32.1838 40.2929 21.3542ZM37.7151 20.5785C37.7151 10.6625 29.6767 2.62401 19.7607 2.62401C18.9556 2.62401 18.1628 2.67701 17.3857 2.7797C17.8642 2.73944 18.3483 2.7189 18.8372 2.7189C28.2718 2.7189 35.92 10.3672 35.92 19.8017C35.92 29.2363 28.2718 36.8845 18.8372 36.8845C9.9166 36.8845 2.59299 30.0468 1.82162 21.3266C2.21381 30.8956 10.0954 38.5329 19.7607 38.5329C29.6767 38.5329 37.7151 30.4944 37.7151 20.5785ZM18.8372 3.50153C27.8395 3.50153 35.1374 10.7994 35.1374 19.8017C35.1374 28.804 27.8395 36.1018 18.8372 36.1018C10.0435 36.1018 2.87614 29.1382 2.54879 20.4245C3.25554 28.2895 9.86483 34.4534 17.9138 34.4534C26.4341 34.4534 33.3413 27.5463 33.3413 19.0259C33.3413 10.5055 26.4341 3.59837 17.9138 3.59837C17.473 3.59837 17.0365 3.61686 16.6051 3.65309C17.3349 3.55316 18.08 3.50153 18.8372 3.50153ZM32.5586 19.0259C32.5586 10.9378 26.0019 4.381 17.9138 4.381C17.2304 4.381 16.5579 4.4278 15.8995 4.51838C16.259 4.49024 16.6224 4.47591 16.9892 4.47591C24.596 4.47591 30.7625 10.6424 30.7625 18.2492C30.7625 25.8559 24.596 32.0224 16.9892 32.0224C9.82959 32.0224 3.94588 26.5595 3.27897 19.5746C3.5675 27.4085 10.0093 33.6708 17.9138 33.6708C26.0019 33.6708 32.5586 27.1141 32.5586 19.0259ZM16.9892 5.25853C24.1637 5.25853 29.9798 11.0747 29.9798 18.2492C29.9798 25.4237 24.1637 31.2398 16.9892 31.2398C9.95606 31.2398 4.22832 25.6506 4.00538 18.6716C4.60751 24.8018 9.7773 29.5914 16.0657 29.5914C22.7589 29.5914 28.1847 24.1655 28.1847 17.4724C28.1847 10.7793 22.7589 5.35342 16.0657 5.35342C15.7588 5.35342 15.4545 5.36483 15.1533 5.38725C15.7531 5.30241 16.366 5.25853 16.9892 5.25853ZM27.4021 17.4724C27.4021 11.2115 22.3266 6.13605 16.0657 6.13605C15.4942 6.13605 14.9326 6.17834 14.3838 6.25996C14.6343 6.24202 14.8872 6.23289 15.1423 6.23289C20.9212 6.23289 25.606 10.9177 25.606 16.6966C25.606 22.4756 20.9212 27.1603 15.1423 27.1603C9.72709 27.1603 5.27269 23.0468 4.73336 17.774C4.89325 23.8955 9.90573 28.8088 16.0657 28.8088C22.3266 28.8088 27.4021 23.7333 27.4021 17.4724ZM15.1423 7.01552C20.489 7.01552 24.8233 11.3499 24.8233 16.6966C24.8233 22.0434 20.489 26.3777 15.1423 26.3777C9.8636 26.3777 5.57168 22.153 5.46329 16.9003C5.95092 21.3042 9.68487 24.7293 14.2188 24.7293C19.0841 24.7293 23.0282 20.7852 23.0282 15.9199C23.0282 11.0546 19.0841 7.11041 14.2188 7.11041C14.0327 7.11041 13.848 7.11618 13.6648 7.12755C14.1465 7.05378 14.6399 7.01552 15.1423 7.01552ZM22.2456 15.9199C22.2456 11.4868 18.6519 7.89304 14.2188 7.89304C13.7736 7.89304 13.3369 7.92928 12.9114 7.99897C13.0382 7.99229 13.1658 7.98891 13.2943 7.98891C17.2459 7.98891 20.4494 11.1924 20.4494 15.1441C20.4494 19.0958 17.2459 22.2993 13.2943 22.2993C9.64035 22.2993 6.62612 19.5603 6.19264 16.0235C6.24814 20.4089 9.82032 23.9467 14.2188 23.9467C18.6519 23.9467 22.2456 20.353 22.2456 15.9199ZM13.2943 8.77153C16.8137 8.77153 19.6668 11.6246 19.6668 15.1441C19.6668 18.6636 16.8137 21.5166 13.2943 21.5166C9.77483 21.5166 6.92175 18.6636 6.92175 15.1441C6.92175 15.1357 6.92177 15.1272 6.9218 15.1188C7.28822 17.8008 9.58818 19.8673 12.3708 19.8673C15.4083 19.8673 17.8707 17.4049 17.8707 14.3674C17.8707 11.3298 15.4083 8.86742 12.3708 8.86742C12.3021 8.86742 12.2337 8.86867 12.1656 8.87117C12.5319 8.8057 12.9091 8.77153 13.2943 8.77153ZM17.088 14.3674C17.088 11.7621 14.9761 9.65004 12.3708 9.65004C9.76552 9.65004 7.65352 11.7621 7.65352 14.3674C7.65352 16.9726 9.76552 19.0846 12.3708 19.0846C14.9761 19.0846 17.088 16.9726 17.088 14.3674Z" fill="#1A1414"/>
</g>
<defs>
<clipPath id="clip0_1535_6549">
<rect width="169" height="42" fill="white"/>
</clipPath>
</defs>
</svg>
