<svg width="74" height="17" viewBox="0 0 74 17" fill="none" xmlns="http://www.w3.org/2000/svg">
<path d="M11.467 13.145L1.96519 6.59064C1.0023 5.92647 1.32962 4.54356 2.53032 4.21836L12.629 1.47747C12.8429 1.40028 13.0721 1.37522 13.2977 1.40438C13.5232 1.43354 13.7386 1.51606 13.9259 1.64512C14.1131 1.77417 14.2669 1.94602 14.3744 2.14641C14.4819 2.3468 14.5402 2.56995 14.5442 2.79734L13.9457 12.092C13.8747 13.1953 12.4299 13.8091 11.467 13.145Z" fill="#E9327C"/>
<path d="M8.4525 14.7626L2.85471 3.81545C2.72675 3.56501 2.67044 3.2841 2.69199 3.00369C2.71354 2.72328 2.81212 2.45427 2.97684 2.22633C3.14157 1.99839 3.36605 1.82036 3.62553 1.71189C3.885 1.60342 4.16939 1.56872 4.44734 1.61162L14.8214 3.21272C15.0603 3.24959 15.2869 3.34262 15.4829 3.48416C15.6787 3.62572 15.8382 3.81174 15.9482 4.02694C16.0582 4.24213 16.1155 4.48036 16.1155 4.72204C16.1154 4.96371 16.058 5.20192 15.948 5.41708L11.169 14.7631C11.0407 15.0128 10.846 15.2224 10.6063 15.3686C10.3667 15.5149 10.0914 15.5922 9.81061 15.5922C9.52984 15.5921 9.25454 15.5147 9.01493 15.3683C8.77532 15.2219 8.58073 15.0124 8.4525 14.7626Z" fill="#1DACE3"/>
<path d="M14.5169 3.16536L9.34544 2.36719L2.99609 4.09117L5.53043 9.04914L11.4651 13.1443C11.596 13.2337 11.74 13.3021 11.892 13.3472L14.1461 8.93897L14.5169 3.16536Z" fill="#001A49"/>
<path d="M40.7148 4.44455C40.7148 4.25232 40.7718 4.06442 40.8786 3.90459C40.9854 3.74477 41.1372 3.6202 41.3148 3.54664C41.4924 3.47308 41.6878 3.45383 41.8763 3.49133C42.0648 3.52883 42.238 3.6214 42.3739 3.75732C42.5099 3.89324 42.6024 4.06641 42.6399 4.25494C42.6774 4.44347 42.6582 4.63889 42.5846 4.81648C42.5111 4.99407 42.3865 5.14586 42.2267 5.25265C42.0669 5.35944 41.8789 5.41644 41.6867 5.41644C41.4298 5.41382 41.1841 5.31059 41.0024 5.12889C40.8207 4.94718 40.7174 4.7015 40.7148 4.44455ZM40.8769 5.89152H42.4971V11.2907H40.8769V5.89152Z" fill="#001A49"/>
<path d="M49.4927 8.59185C49.5116 8.94872 49.4596 9.3058 49.34 9.64255C49.2203 9.97924 49.0352 10.289 48.7954 10.554C48.5556 10.8189 48.2658 11.0339 47.9426 11.1865C47.6194 11.339 47.2693 11.4262 46.9123 11.4429C46.612 11.4592 46.3119 11.4086 46.0336 11.2947C45.7553 11.1807 45.5058 11.0063 45.3032 10.784V13.4513H43.6836V5.89226H45.3032V6.39966C45.5059 6.17748 45.7553 6.00317 46.0337 5.8893C46.3119 5.77545 46.6121 5.72489 46.9123 5.74131C47.2693 5.75798 47.6194 5.84508 47.9425 5.99756C48.2657 6.15009 48.5556 6.36497 48.7954 6.6299C49.0352 6.89482 49.2203 7.2045 49.34 7.54125C49.4596 7.87794 49.5116 8.23497 49.4927 8.59185ZM47.8731 8.59185C47.8667 8.33905 47.7859 8.09377 47.6409 7.88663C47.4958 7.67954 47.2928 7.5198 47.0575 7.42748C46.822 7.33511 46.5646 7.3143 46.3174 7.36753C46.0703 7.42076 45.8442 7.5457 45.6677 7.72673C45.4912 7.90776 45.3719 8.13688 45.325 8.38534C45.278 8.63379 45.3054 8.89062 45.4036 9.12361C45.5019 9.3566 45.6666 9.55542 45.8773 9.69525C46.0881 9.83507 46.3353 9.90959 46.5881 9.90959C46.7618 9.91743 46.9351 9.88841 47.0968 9.82453C47.2584 9.76061 47.4047 9.6632 47.526 9.53879C47.6474 9.41433 47.741 9.26566 47.8009 9.10242C47.8607 8.93924 47.8853 8.7652 47.8731 8.59185Z" fill="#001A49"/>
<path d="M54.4895 9.6715C54.4895 10.9135 53.4095 11.4426 52.2433 11.4426C51.7722 11.4853 51.299 11.3855 50.8852 11.1564C50.4713 10.9272 50.1358 10.5792 49.9219 10.1572L51.3254 9.35848C51.3825 9.55355 51.5048 9.72309 51.6719 9.83876C51.8389 9.95444 52.0407 10.0093 52.2433 9.99406C52.6321 9.99406 52.8259 9.87489 52.8259 9.65932C52.8259 9.06506 50.1697 9.37861 50.1697 7.51004C50.1697 6.33317 51.1628 5.73944 52.2883 5.73944C52.7105 5.72619 53.1284 5.82636 53.4985 6.02953C53.8692 6.2327 54.178 6.53142 54.3936 6.89459L53.0118 7.6398C52.9514 7.49807 52.8505 7.37725 52.7219 7.29251C52.5932 7.20772 52.4424 7.16275 52.2883 7.16312C52.0076 7.16312 51.8349 7.26905 51.8349 7.46555C51.8334 8.08523 54.4895 7.67476 54.4895 9.6715Z" fill="#001A49"/>
<path d="M60.4096 5.89258V11.2917H58.79V10.7833C58.603 11.0073 58.3652 11.1837 58.0967 11.2983C57.8287 11.4128 57.5369 11.4621 57.2456 11.4422C56.155 11.4422 55.2266 10.6646 55.2266 9.20655V5.89258H56.8462V8.97032C56.8324 9.09903 56.8473 9.22916 56.8891 9.35161C56.9309 9.47407 56.9987 9.58598 57.0883 9.67951C57.1778 9.77305 57.2863 9.84593 57.4066 9.89312C57.5273 9.94036 57.6566 9.9607 57.7858 9.95281C58.3795 9.95281 58.7921 9.60748 58.7921 8.84056V5.89258H60.4096Z" fill="#001A49"/>
<path d="M69.6964 7.97643V11.292H68.0768V8.11732C68.0768 7.57761 67.8172 7.23176 67.2992 7.23176C66.759 7.23176 66.4571 7.60992 66.4571 8.24708V11.292H64.8369V8.11732C64.8369 7.57761 64.578 7.23176 64.0594 7.23176C63.5197 7.23176 63.2173 7.60992 63.2173 8.24708V11.292H61.5977V5.89282H63.2199V6.38751C63.3878 6.16723 63.6082 5.99255 63.8608 5.87937C64.1135 5.76624 64.391 5.71823 64.6669 5.73976C64.9439 5.72621 65.2204 5.7847 65.4683 5.90956C65.7161 6.03439 65.9275 6.22131 66.0816 6.45212C66.2611 6.21066 66.499 6.01861 66.7728 5.89404C67.0466 5.76944 67.348 5.71637 67.6477 5.73976C68.8871 5.74188 69.6964 6.6269 69.6964 7.97643Z" fill="#001A49"/>
<path d="M71.0656 5.85965C71.7297 5.85965 72.2679 5.32137 72.2679 4.65736C72.2679 3.99336 71.7297 3.45508 71.0656 3.45508C70.4014 3.45508 69.8633 3.99336 69.8633 4.65736C69.8633 5.32137 70.4014 5.85965 71.0656 5.85965Z" fill="#001A49"/>
<path d="M18.5977 3.4082H20.2178V11.2909H18.5977V3.4082ZM21.1352 8.5913C21.1334 8.02522 21.2996 7.47137 21.6128 6.99989C21.926 6.52835 22.372 6.16035 22.8945 5.94251C23.417 5.72466 23.9923 5.66673 24.5477 5.77607C25.1031 5.88542 25.6136 6.15707 26.0144 6.55674C26.4153 6.95635 26.6886 7.46592 26.7997 8.02098C26.9108 8.57605 26.8547 9.15156 26.6385 9.67468C26.4223 10.1978 26.0557 10.645 25.5852 10.9597C25.1146 11.2744 24.5613 11.4424 23.9952 11.4424C23.6193 11.4463 23.2463 11.3754 22.8981 11.2337C22.5499 11.092 22.2334 10.8822 21.9671 10.6168C21.7008 10.3514 21.4901 10.0355 21.3473 9.68777C21.2044 9.34 21.1324 8.96724 21.1352 8.5913ZM25.2388 8.5913C25.2325 8.34708 25.1543 8.11023 25.014 7.91029C24.8737 7.71035 24.6776 7.55617 24.4502 7.46708C24.2227 7.37805 23.9741 7.35798 23.7353 7.40951C23.4966 7.46099 23.2783 7.58181 23.1078 7.75669C22.9373 7.93163 22.8222 8.15292 22.7768 8.3929C22.7315 8.63293 22.7579 8.88096 22.8528 9.10606C22.9477 9.3311 23.1068 9.52321 23.3103 9.65832C23.5138 9.79343 23.7526 9.86551 23.9968 9.86562C24.1641 9.87039 24.3305 9.84041 24.4856 9.77765C24.6408 9.71494 24.7812 9.62071 24.8981 9.50096C25.015 9.38126 25.1058 9.23863 25.1648 9.08207C25.2238 8.92545 25.2497 8.75835 25.2409 8.5913H25.2388ZM33.3153 5.89013V11.0197C33.3153 12.8337 31.9007 13.6001 30.4648 13.6001C29.9594 13.6383 29.4532 13.5365 29.0018 13.306C28.5504 13.0756 28.1711 12.7252 27.9056 12.2935L29.2874 11.4943C29.399 11.7196 29.5766 11.9055 29.7967 12.0271C30.0168 12.1487 30.2687 12.2003 30.5188 12.1749C30.6785 12.1966 30.841 12.1823 30.9944 12.1329C31.1478 12.0835 31.2881 12.0003 31.405 11.8894C31.5219 11.7786 31.6124 11.6429 31.6699 11.4923C31.7274 11.3418 31.7503 11.1802 31.737 11.0197V10.5229C31.5473 10.7549 31.3058 10.9392 31.032 11.0611C30.7582 11.1829 30.4597 11.239 30.1603 11.2247C29.4476 11.2025 28.7715 10.9038 28.2753 10.3919C27.779 9.87992 27.5015 9.19493 27.5015 8.48193C27.5015 7.76887 27.779 7.08389 28.2753 6.57194C28.7715 6.05999 29.4476 5.76131 30.1603 5.73916C30.4597 5.72483 30.7582 5.78085 31.032 5.90273C31.3058 6.02461 31.5473 6.20892 31.737 6.44096V5.89013H33.3153ZM31.7391 8.48167C31.7498 8.22087 31.6822 7.96288 31.5451 7.7408C31.408 7.51872 31.2076 7.34272 30.9696 7.23547C30.7317 7.12822 30.4671 7.09459 30.2099 7.13892C29.9527 7.18325 29.7146 7.30348 29.5263 7.48419C29.3379 7.66491 29.208 7.89779 29.1531 8.15292C29.0982 8.4081 29.1208 8.67382 29.2182 8.91603C29.3155 9.15818 29.4831 9.36569 29.6993 9.51187C29.9155 9.65805 30.1705 9.73623 30.4314 9.73639C30.6016 9.7483 30.7724 9.72452 30.9328 9.66653C31.0933 9.60853 31.2398 9.51759 31.363 9.39953C31.4861 9.28153 31.5832 9.139 31.648 8.98122C31.7128 8.82339 31.7438 8.65375 31.7391 8.48325V8.48167ZM34.2327 8.58759C34.2309 8.02151 34.3971 7.46767 34.7103 6.99618C35.0235 6.52464 35.4695 6.15665 35.992 5.9388C36.5145 5.72095 37.0898 5.66302 37.6452 5.77236C38.2006 5.88171 38.711 6.15336 39.1119 6.55303C39.5128 6.95264 39.7861 7.46221 39.8972 8.01728C40.0083 8.57234 39.9522 9.14785 39.736 9.67098C39.5198 10.1941 39.1532 10.6413 38.6827 10.956C38.2121 11.2707 37.6588 11.4387 37.0927 11.4387C36.7171 11.4426 36.3445 11.3718 35.9965 11.2303C35.6485 11.0888 35.3322 10.8794 35.066 10.6144C34.7997 10.3493 34.589 10.034 34.4459 9.6866C34.3028 9.33926 34.2303 8.96692 34.2327 8.5913V8.58759ZM38.3363 8.58759C38.3301 8.34327 38.2519 8.1062 38.1117 7.90605C37.9714 7.70595 37.7751 7.55167 37.5476 7.46248C37.32 7.37329 37.0712 7.35321 36.8323 7.40475C36.5934 7.45623 36.375 7.57709 36.2044 7.75208C36.0338 7.92713 35.9186 8.14857 35.8733 8.38871C35.8279 8.62885 35.8544 8.8771 35.9493 9.10225C36.0444 9.32745 36.2036 9.5196 36.4073 9.65477C36.611 9.78988 36.8499 9.86191 37.0943 9.86191C37.2611 9.86631 37.4269 9.83628 37.5815 9.77362C37.7361 9.71096 37.8761 9.617 37.9928 9.49773C38.1093 9.37845 38.2001 9.23635 38.2592 9.08037C38.3183 8.92439 38.3446 8.75787 38.3363 8.5913V8.58759Z" fill="#001A49"/>
</svg>
