<svg width="54" height="28" viewBox="0 0 54 28" fill="none" xmlns="http://www.w3.org/2000/svg">
<path d="M1.80859 15.6328H3.30903V22.9899H1.80859V15.6328Z" fill="#394149"/>
<path d="M4.17981 20.4687C4.17882 19.9403 4.33461 19.4234 4.62748 18.9836C4.92034 18.5437 5.33711 18.2006 5.82505 17.9977C6.31295 17.7948 6.85012 17.7412 7.36853 17.8437C7.88694 17.9462 8.3633 18.2001 8.73728 18.5735C9.11132 18.9468 9.36618 19.4226 9.46962 19.9408C9.57311 20.459 9.52052 20.9963 9.31851 21.4846C9.11651 21.9729 8.7742 22.3903 8.33486 22.684C7.89558 22.9778 7.37902 23.1345 6.85059 23.1345C6.49912 23.1385 6.15046 23.0724 5.82494 22.9398C5.49944 22.8074 5.20364 22.6112 4.9549 22.363C4.70615 22.1147 4.50947 21.8193 4.37638 21.494C4.24329 21.1687 4.17646 20.8202 4.17981 20.4687ZM8.01088 20.4687C8.005 20.2406 7.93196 20.0193 7.80093 19.8325C7.6699 19.6456 7.48669 19.5016 7.2742 19.4184C7.06171 19.3351 6.82941 19.3164 6.60638 19.3645C6.38329 19.4126 6.17938 19.5254 6.02006 19.6888C5.8608 19.8522 5.75323 20.059 5.71083 20.2832C5.66843 20.5074 5.6931 20.7392 5.78172 20.9494C5.87039 21.1597 6.01906 21.3392 6.20915 21.4654C6.39929 21.5916 6.62237 21.659 6.85059 21.6591C7.00668 21.6635 7.16202 21.6354 7.30677 21.5768C7.45153 21.5181 7.58256 21.43 7.69161 21.3182C7.80061 21.2063 7.8853 21.0731 7.94023 20.9269C7.9952 20.7807 8.01925 20.6247 8.01088 20.4687Z" fill="#394149"/>
<path d="M15.5535 17.9486V22.7399C15.5535 24.4354 14.2281 25.1506 12.8877 25.1506C12.4164 25.1857 11.9445 25.0903 11.5237 24.8751C11.1029 24.6599 10.7494 24.333 10.502 23.9303L11.7924 23.1851C11.8948 23.3914 12.0568 23.5623 12.2574 23.6756C12.4581 23.7888 12.6881 23.8392 12.9177 23.8202C13.0688 23.8454 13.2237 23.8356 13.3704 23.7914C13.5171 23.7473 13.6517 23.6701 13.7638 23.5657C13.8759 23.4613 13.9625 23.3325 14.017 23.1894C14.0715 23.0462 14.0924 22.8924 14.078 22.7399V22.2748C13.9017 22.4918 13.6766 22.6642 13.4211 22.778C13.1657 22.8919 12.887 22.9439 12.6076 22.93C11.9285 22.93 11.2772 22.6602 10.7969 22.18C10.3167 21.6997 10.0469 21.0484 10.0469 20.3692C10.0469 19.6901 10.3167 19.0388 10.7969 18.5585C11.2772 18.0783 11.9285 17.8085 12.6076 17.8085C12.8868 17.7957 13.1651 17.8483 13.4204 17.9621C13.6757 18.0758 13.9009 18.2476 14.078 18.4637V17.9635L15.5535 17.9486ZM14.078 20.3692C14.088 20.126 14.025 19.8853 13.8972 19.6782C13.7692 19.471 13.5823 19.3068 13.3604 19.2068C13.1385 19.1067 12.8917 19.0753 12.6518 19.1166C12.4118 19.1578 12.1898 19.27 12.0141 19.4384C11.8383 19.607 11.717 19.8242 11.6658 20.0621C11.6145 20.3001 11.6355 20.548 11.7263 20.7739C11.817 20.9999 11.9732 21.1935 12.1748 21.3299C12.3765 21.4664 12.6143 21.5394 12.8577 21.5396C13.0166 21.5508 13.1761 21.5287 13.3259 21.4745C13.4757 21.4203 13.6125 21.3354 13.7275 21.2251C13.8424 21.1149 13.9331 20.9817 13.9934 20.8343C14.0538 20.6869 14.0826 20.5285 14.078 20.3692Z" fill="#394149"/>
<path d="M16.4181 20.4687C16.4171 19.9403 16.5729 19.4234 16.8657 18.9836C17.1586 18.5437 17.5754 18.2006 18.0633 17.9977C18.5512 17.7948 19.0884 17.7412 19.6068 17.8437C20.1252 17.9462 20.6016 18.2001 20.9756 18.5735C21.3496 18.9468 21.6044 19.4226 21.7079 19.9408C21.8114 20.459 21.7588 20.9963 21.5568 21.4846C21.3548 21.9729 21.0125 22.3903 20.5732 22.684C20.1338 22.9778 19.6173 23.1345 19.0889 23.1345C18.7374 23.1385 18.3887 23.0724 18.0632 22.9398C17.7377 22.8074 17.4419 22.6112 17.1932 22.363C16.9444 22.1147 16.7477 21.8193 16.6146 21.494C16.4815 21.1687 16.4147 20.8202 16.4181 20.4687ZM20.2492 20.4687C20.2433 20.2406 20.1702 20.0193 20.0392 19.8325C19.9082 19.6456 19.725 19.5016 19.5125 19.4184C19.3 19.3351 19.0677 19.3164 18.8446 19.3645C18.6216 19.4126 18.4176 19.5254 18.2583 19.6888C18.0991 19.8522 17.9915 20.059 17.9491 20.2832C17.9067 20.5074 17.9314 20.7392 18.02 20.9494C18.1087 21.1597 18.2573 21.3392 18.4474 21.4654C18.6376 21.5916 18.8606 21.659 19.0889 21.6591C19.2442 21.662 19.3984 21.633 19.542 21.5737C19.6855 21.5144 19.8153 21.4261 19.9233 21.3144C20.0312 21.2028 20.1149 21.07 20.1693 20.9245C20.2237 20.779 20.2475 20.6238 20.2392 20.4687H20.2492Z" fill="#394149"/>
<path d="M22.457 16.5997C22.457 16.4197 22.5104 16.2437 22.6104 16.094C22.7105 15.9443 22.8526 15.8276 23.0189 15.7587C23.1853 15.6898 23.3683 15.6718 23.5449 15.7069C23.7214 15.7421 23.8836 15.8288 24.0109 15.956C24.1383 16.0834 24.2249 16.2455 24.26 16.4221C24.2952 16.5987 24.2771 16.7817 24.2083 16.9481C24.1394 17.1144 24.0227 17.2566 23.873 17.3566C23.7233 17.4566 23.5473 17.5099 23.3673 17.5099C23.1263 17.5087 22.8955 17.4123 22.7251 17.2419C22.5546 17.0715 22.4584 16.8407 22.457 16.5997ZM22.6121 17.9501H24.1125V22.9915H22.6121V17.9501Z" fill="#394149"/>
<path d="M30.6526 20.4696C30.6708 20.8028 30.6229 21.1364 30.5117 21.4511C30.4004 21.7657 30.2281 22.0553 30.0044 22.3031C29.7808 22.5508 29.5104 22.7519 29.2088 22.8948C28.9072 23.0376 28.5803 23.1194 28.2469 23.1354C27.9671 23.1488 27.6876 23.1007 27.4284 22.9944C27.1692 22.8881 26.9364 22.7262 26.7465 22.5202V25.0209H25.2461V17.9489H26.7465V18.424C26.9364 18.218 27.1692 18.0561 27.4284 17.9498C27.6876 17.8435 27.9671 17.7954 28.2469 17.8088C28.5799 17.8248 28.9063 17.9064 29.2076 18.049C29.5089 18.1916 29.7791 18.3922 30.0026 18.6394C30.2262 18.8867 30.3986 19.1756 30.5101 19.4897C30.6217 19.8037 30.6702 20.1368 30.6526 20.4696ZM29.1522 20.4696C29.1463 20.2349 29.0716 20.007 28.9374 19.8143C28.8033 19.6216 28.6156 19.4724 28.3975 19.3853C28.1795 19.2982 27.9406 19.2769 27.7106 19.3242C27.4806 19.3715 27.2695 19.4852 27.1034 19.6512C26.9374 19.8173 26.8237 20.0284 26.7764 20.2584C26.7292 20.4884 26.7504 20.7272 26.8375 20.9453C26.9246 21.1633 27.0738 21.3511 27.2665 21.4852C27.4593 21.6193 27.6871 21.694 27.9218 21.7C28.0857 21.7104 28.2498 21.6856 28.4033 21.6273C28.5567 21.569 28.6959 21.4786 28.8115 21.362C28.9271 21.2455 29.0165 21.1055 29.0735 20.9516C29.1305 20.7977 29.1539 20.6334 29.1422 20.4696H29.1522Z" fill="#394149"/>
<path d="M35.3248 21.4796C35.3248 22.6399 34.3245 23.135 33.2242 23.135C32.7846 23.174 32.3435 23.0804 31.9576 22.8665C31.5717 22.6526 31.2585 22.3281 31.0586 21.9347L32.369 21.1895C32.4222 21.3714 32.536 21.5297 32.6916 21.638C32.8472 21.7462 33.0351 21.798 33.2242 21.7847C33.5893 21.7847 33.7694 21.6696 33.7694 21.4696C33.7694 20.9144 31.2686 21.2095 31.2686 19.469C31.2686 18.3687 32.1989 17.8135 33.2692 17.8135C33.6642 17.8015 34.0551 17.8953 34.4016 18.0853C34.7481 18.2753 35.0375 18.5544 35.2398 18.8938L33.9244 19.5841C33.8663 19.452 33.7711 19.3396 33.6503 19.2606C33.5296 19.1815 33.3885 19.1393 33.2442 19.1389C32.9842 19.1389 32.8241 19.2389 32.8241 19.424C32.8441 19.9991 35.3248 19.614 35.3248 21.4796Z" fill="#394149"/>
<path d="M40.8459 17.9492V22.9907H39.3455V22.5206C39.171 22.7294 38.9495 22.8941 38.6991 23.001C38.4488 23.1079 38.1767 23.1541 37.9051 23.1357C36.9048 23.1357 36.0195 22.4105 36.0195 21.0451V17.9492H37.52V20.8251C37.5068 20.9476 37.5211 21.0716 37.5617 21.1879C37.6024 21.3043 37.6685 21.4101 37.7552 21.4978C37.8418 21.5854 37.947 21.6526 38.0628 21.6946C38.1787 21.7366 38.3026 21.7522 38.4252 21.7403C38.9754 21.7403 39.3605 21.4202 39.3605 20.7051V17.9492H40.8459Z" fill="#394149"/>
<path d="M49.5154 19.9002V22.991H48.015V20.0302C48.015 19.5301 47.7699 19.2 47.2898 19.2C46.8097 19.2 46.4996 19.5551 46.4996 20.1503V22.991H44.9991V20.0302C44.9991 19.5301 44.759 19.2 44.2739 19.2C43.7888 19.2 43.4887 19.5551 43.4887 20.1503V22.991H41.9883V17.9497H43.4887V18.4148C43.6455 18.2093 43.8512 18.0464 44.087 17.9407C44.3229 17.835 44.5814 17.7899 44.8391 17.8096C45.0979 17.797 45.3555 17.8517 45.5869 17.9682C45.8183 18.0848 46.0155 18.2593 46.1595 18.4748C46.3268 18.2495 46.5486 18.0704 46.804 17.954C47.0594 17.8377 47.3401 17.788 47.6199 17.8096C48.7602 17.8096 49.5154 18.6398 49.5154 19.9002Z" fill="#394149"/>
<path d="M50.8 17.9184C51.4188 17.9184 51.9203 17.4168 51.9203 16.798C51.9203 16.1793 51.4188 15.6777 50.8 15.6777C50.1813 15.6777 49.6797 16.1793 49.6797 16.798C49.6797 17.4168 50.1813 17.9184 50.8 17.9184Z" fill="#394149"/>
<path d="M18.7895 11.8172C21.6871 11.8172 24.036 9.46827 24.036 6.5707C24.036 3.67316 21.6871 1.32422 18.7895 1.32422C15.8919 1.32422 13.543 3.67316 13.543 6.5707C13.543 9.46827 15.8919 11.8172 18.7895 11.8172Z" fill="#394149"/>
<path d="M30.5161 11.8172C33.4136 11.8172 35.7625 9.46827 35.7625 6.5707C35.7625 3.67316 33.4136 1.32422 30.5161 1.32422C27.6185 1.32422 25.2695 3.67316 25.2695 6.5707C25.2695 9.46827 27.6185 11.8172 30.5161 11.8172Z" fill="#394149"/>
<path d="M12.3083 1.32422H1.82031V11.8122H12.3083V1.32422Z" fill="#394149"/>
</svg>
