<svg width="104" height="104" viewBox="0 0 104 104" fill="none" xmlns="http://www.w3.org/2000/svg">
<circle cx="52" cy="52" r="52" fill="#1D9BF0"/>
<path d="M67.905 44.0913C67.9294 44.4441 67.9294 44.7966 67.9294 45.1525C67.9294 55.9963 59.6741 68.5025 44.5794 68.5025V68.4963C40.12 68.5025 35.7531 67.2252 32 64.8169C32.6484 64.895 33.3 64.9341 33.9531 64.9356C37.6491 64.9386 41.2388 63.699 44.1453 61.416C42.4328 61.3836 40.7732 60.8169 39.3986 59.7951C38.0239 58.7733 37.003 57.3474 36.4784 55.7169C37.7087 55.9544 38.9763 55.9053 40.1838 55.5753C36.355 54.8019 33.6006 51.4381 33.6006 47.5316V47.4275C34.742 48.0634 36.0194 48.4156 37.3253 48.4547C33.7188 46.0447 32.6078 41.2475 34.7853 37.4972C36.8456 40.0324 39.4161 42.1059 42.3299 43.5829C45.2438 45.06 48.4357 45.9076 51.6984 46.0706C51.3732 44.6703 51.4214 43.209 51.838 41.8331C52.2547 40.4571 53.0253 39.2147 54.0728 38.23C57.3781 35.1228 62.5766 35.2822 65.6834 38.586C67.5213 38.2231 69.2838 37.5492 70.895 36.5935C70.2823 38.4937 69.0004 40.1067 67.2875 41.1325C68.9143 40.9407 70.5029 40.5051 72 39.8403C70.8987 41.4896 69.512 42.9291 67.905 44.0913Z" fill="white"/>
</svg>
