<svg width="38" height="39" viewBox="0 0 38 39" fill="none" xmlns="http://www.w3.org/2000/svg">
<path d="M15.1954 28.5174C15.1918 26.2722 15.866 24.0734 17.1376 22.1829H4.27205C3.13919 22.1833 2.05287 22.6122 1.25181 23.3751C0.450756 24.138 0.000503608 25.1725 0 26.2514V27.9165C0 28.9518 0.338268 29.9617 0.969194 30.8051C3.89958 34.7216 8.69614 36.6618 15.1954 36.6618C16.3357 36.6618 17.4227 36.6021 18.4584 36.4826C16.3566 34.3135 15.1914 31.469 15.1954 28.5174ZM15.1954 0.47168C17.7155 0.47168 20.1323 1.42509 21.9143 3.12217C23.6963 4.81925 24.6973 7.12099 24.6973 9.52102C24.6973 11.9211 23.6963 14.2228 21.9143 15.9199C20.1323 17.617 17.7155 18.5704 15.1954 18.5704C12.6754 18.5704 10.2585 17.617 8.47658 15.9199C6.69463 14.2228 5.69354 11.9211 5.69354 9.52102C5.69354 7.12099 6.69463 4.81925 8.47658 3.12217C10.2585 1.42509 12.6754 0.47168 15.1954 0.47168ZM38 28.5174C38 31.1574 36.8988 33.6894 34.9387 35.5561C32.9785 37.4229 30.32 38.4717 27.5479 38.4717C24.7758 38.4717 22.1173 37.4229 20.1572 35.5561C18.197 33.6894 17.0958 31.1574 17.0958 28.5174C17.0958 25.8774 18.197 23.3455 20.1572 21.4787C22.1173 19.6119 24.7758 18.5631 27.5479 18.5631C30.32 18.5631 32.9785 19.6119 34.9387 21.4787C36.8988 23.3455 38 25.8774 38 28.5174ZM28.6026 22.943C28.5374 22.7245 28.3991 22.5322 28.2088 22.3953C28.0185 22.2584 27.7864 22.1843 27.5479 22.1843C27.3094 22.1843 27.0774 22.2584 26.887 22.3953C26.6967 22.5322 26.5584 22.7245 26.4932 22.943L25.4347 26.1791H22.0083C20.9327 26.1791 20.488 27.5437 21.3565 28.1699L24.1272 30.1698L23.0687 33.404C22.7361 34.4194 23.9068 35.2646 24.7772 34.6366L27.5479 32.6385L30.3187 34.6366C31.189 35.2646 32.3597 34.4194 32.0271 33.4059L30.9686 30.1698L33.7393 28.1717C34.6097 27.5437 34.1631 26.1791 33.0875 26.1791H29.6611L28.6026 22.943Z" fill="#3F60AC"/>
</svg>
