<svg width="104" height="104" viewBox="0 0 104 104" fill="none" xmlns="http://www.w3.org/2000/svg">
<circle cx="52" cy="52" r="52" fill="#60D669"/>
<g clipPath="url(#clip0_3808_7258)">
<path d="M32.8543 51.7606C32.8534 55.1213 33.7384 58.4029 35.4212 61.2953L32.6934 71.1778L42.8859 68.526C45.705 70.0488 48.8636 70.8467 52.0734 70.8469H52.0818C62.6779 70.8469 71.3034 62.2914 71.3079 51.7756C71.3099 46.68 69.3118 41.8883 65.6815 38.2834C62.0518 34.6787 57.2245 32.6925 52.081 32.6902C41.4837 32.6902 32.8588 41.2452 32.8545 51.7606" fill="url(#paint0_linear_3808_7258)"/>
<path d="M32.1672 51.7544C32.1661 55.2361 33.0828 58.635 34.8256 61.631L32 71.8678L42.558 69.1209C45.467 70.6947 48.7423 71.5245 52.0752 71.5257H52.0837C63.06 71.5257 71.9953 62.6625 72 51.7702C72.0019 46.4915 69.9319 41.5276 66.1719 37.7935C62.4114 34.0598 57.4114 32.0022 52.0837 32C41.1056 32 32.1716 40.862 32.1672 51.7544ZM38.4547 61.115L38.0605 60.4941C36.4033 57.8795 35.5286 54.8581 35.5298 51.7557C35.5334 42.7022 42.9591 35.3364 52.09 35.3364C56.5119 35.3383 60.6675 37.0487 63.7931 40.1519C66.9186 43.2555 68.6384 47.3811 68.6373 51.769C68.6333 60.8225 61.2075 68.1891 52.0837 68.1891H52.0772C49.1064 68.1876 46.1928 67.396 43.6519 65.9L43.0472 65.5442L36.7819 67.1741L38.4547 61.1149V61.115Z" fill="url(#paint1_linear_3808_7258)"/>
<path d="M47.1051 43.4958C46.7323 42.6736 46.3399 42.657 45.9854 42.6426C45.6951 42.6302 45.3632 42.6311 45.0316 42.6311C44.6998 42.6311 44.1605 42.755 43.7048 43.2488C43.2485 43.7431 41.9629 44.9375 41.9629 47.3668C41.9629 49.7962 43.7462 52.144 43.9948 52.4738C44.2437 52.8029 47.4374 57.9477 52.4955 59.9269C56.6993 61.5717 57.5548 61.2446 58.4671 61.1621C59.3796 61.08 61.4115 59.968 61.826 58.815C62.2409 57.6621 62.2409 56.6739 62.1165 56.4674C61.9921 56.2617 61.6602 56.1381 61.1626 55.8913C60.6648 55.6443 58.2182 54.4497 57.7621 54.2849C57.3059 54.1203 56.9741 54.0381 56.6423 54.5325C56.3104 55.0262 55.3574 56.1381 55.067 56.4674C54.7768 56.7975 54.4863 56.8386 53.9888 56.5916C53.4909 56.3438 51.8882 55.8231 49.9868 54.141C48.5074 52.8322 47.5087 51.2159 47.2184 50.7215C46.928 50.2279 47.1873 49.9603 47.4368 49.7142C47.6604 49.493 47.9346 49.1376 48.1837 48.8494C48.4318 48.561 48.5146 48.3553 48.6805 48.026C48.8466 47.6964 48.7635 47.408 48.6393 47.161C48.5146 46.9141 47.5476 44.4721 47.1051 43.4958Z" fill="white"/>
</g>
<defs>
<linearGradient id="paint0_linear_3808_7258" x1="1963.42" y1="3881.45" x2="1963.42" y2="32.6902" gradientUnits="userSpaceOnUse">
<stop stop-color="#1FAF38"/>
<stop offset="1" stop-color="#60D669"/>
</linearGradient>
<linearGradient id="paint1_linear_3808_7258" x1="2032" y1="4018.78" x2="2032" y2="32" gradientUnits="userSpaceOnUse">
<stop stop-color="#F9F9F9"/>
<stop offset="1" stop-color="white"/>
</linearGradient>
<clipPath id="clip0_3808_7258">
<rect width="40" height="40" fill="white" transform="translate(32 32)"/>
</clipPath>
</defs>
</svg>
