<svg width="30" height="29" viewBox="0 0 30 29" fill="none" xmlns="http://www.w3.org/2000/svg">
<path d="M14.9 0.178711C11.0809 0.178711 7.41819 1.69585 4.71766 4.39637C2.01714 7.0969 0.5 10.7596 0.5 14.5787C0.5 18.3978 2.01714 22.0605 4.71766 24.761C7.41819 27.4616 11.0809 28.9787 14.9 28.9787C18.7191 28.9787 22.3818 27.4616 25.0823 24.761C27.7829 22.0605 29.3 18.3978 29.3 14.5787C29.3 10.7596 27.7829 7.0969 25.0823 4.39637C22.3818 1.69585 18.7191 0.178711 14.9 0.178711V0.178711ZM2.276 15.6667H6.292C6.356 17.1227 6.5592 18.5691 6.9 19.9867H3.444C2.79953 18.6281 2.40393 17.165 2.276 15.6667ZM15.988 7.02671V2.08271C17.5299 2.66867 18.7969 3.81011 19.54 5.28271C19.868 5.83791 20.1576 6.41551 20.404 7.01071L15.988 7.02671ZM21.14 9.18671C21.5112 10.5995 21.732 12.0475 21.796 13.5067H15.988V9.18671H21.14ZM13.812 2.08271V7.02671H9.396C9.64282 6.43102 9.93154 5.85358 10.26 5.29871C10.9999 3.82008 12.2673 2.67257 13.812 2.08271ZM13.812 9.18671V13.5067H8.02C8.084 12.0475 8.3048 10.5995 8.676 9.18671H13.812ZM6.292 13.4907H2.276C2.40393 11.9925 2.79953 10.5293 3.444 9.17071H6.9C6.55855 10.5877 6.35493 12.0345 6.292 13.4907ZM8.02 15.6667H13.812V19.9867H8.676C8.30486 18.574 8.08495 17.1259 8.02 15.6667ZM13.828 22.0667V27.0107C12.2861 26.4247 11.0191 25.2833 10.276 23.8107C9.94754 23.2558 9.65882 22.6784 9.412 22.0827L13.828 22.0667ZM15.988 27.0107V22.1467H20.404C20.1572 22.7424 19.8685 23.3198 19.54 23.8747C18.7969 25.3473 17.5299 26.4887 15.988 27.0747V27.0107ZM15.988 19.9067V15.5867H21.78C21.715 17.0459 21.4951 18.494 21.124 19.9067H15.988ZM23.524 15.5867H27.54C27.4121 17.085 27.0165 18.5481 26.372 19.9067H22.9C23.236 18.5147 23.4392 17.0955 23.508 15.6667L23.524 15.5867ZM23.524 13.4267C23.4507 11.9968 23.2418 10.5771 22.9 9.18671H26.356C27.0008 10.5467 27.396 12.0091 27.524 13.5067L23.524 13.4267ZM25.124 7.02671H22.26C21.7418 5.57119 20.9907 4.20947 20.036 2.99471C22.027 3.88844 23.7564 5.27639 25.06 7.02671H25.124ZM9.764 2.99471C8.80931 4.20947 8.0582 5.57119 7.54 7.02671H4.74C6.04355 5.27639 7.77299 3.88844 9.764 2.99471ZM4.724 22.1947H7.54C8.0582 23.6502 8.80931 25.0119 9.764 26.2267C7.76748 25.3195 6.03751 23.9146 4.74 22.1467L4.724 22.1947ZM20.02 26.2267C20.9747 25.0119 21.7258 23.6502 22.244 22.1947H25.06C23.7485 23.9216 22.0197 25.287 20.036 26.1627L20.02 26.2267Z" fill="white"/>
</svg>
